SeN-CM.ufo
<glyph name="asterisk" format="2">
  <advance width="360"/>
  <unicode hex="002A"/>
  <outline>
    <contour>
      <point x="225" y="589" type="line"/>
      <point x="221" y="589" type="line"/>
      <point x="224" y="594" type="line"/>
      <point x="244" y="621" type="line"/>
      <point x="281" y="681" type="line"/>
      <point x="234" y="708" type="line"/>
      <point x="198" y="649" type="line"/>
      <point x="185" y="617" type="line"/>
      <point x="181" y="609" type="line"/>
      <point x="176" y="617" type="line"/>
      <point x="163" y="649" type="line"/>
      <point x="127" y="708" type="line"/>
      <point x="80" y="681" type="line"/>
      <point x="117" y="621" type="line"/>
      <point x="137" y="594" type="line"/>
      <point x="140" y="589" type="line"/>
      <point x="135" y="589" type="line"/>
      <point x="100" y="594" type="line"/>
      <point x="30" y="594" type="line"/>
      <point x="30" y="540" type="line"/>
      <point x="100" y="540" type="line"/>
      <point x="135" y="544" type="line"/>
      <point x="142" y="544" type="line"/>
      <point x="140" y="540" type="line"/>
      <point x="117" y="514" type="line"/>
      <point x="80" y="453" type="line"/>
      <point x="126" y="425" type="line"/>
      <point x="164" y="487" type="line"/>
      <point x="178" y="518" type="line"/>
      <point x="181" y="522" type="line"/>
      <point x="183" y="518" type="line"/>
      <point x="197" y="487" type="line"/>
      <point x="235" y="425" type="line"/>
      <point x="281" y="453" type="line"/>
      <point x="244" y="514" type="line"/>
      <point x="221" y="540" type="line"/>
      <point x="219" y="544" type="line"/>
      <point x="225" y="544" type="line"/>
      <point x="259" y="540" type="line"/>
      <point x="331" y="540" type="line"/>
      <point x="331" y="594" type="line"/>
      <point x="259" y="594" type="line"/>
    </contour>
  </outline>
</glyph>
<glyph name="zero" format="2">
  <advance width="490"/>
  <unicode hex="0030"/>
  <outline>
    <contour>
      <point x="245" y="54" type="curve" smooth="yes"/>
      <point x="228" y="54"/>
      <point x="212" y="60"/>
      <point x="196" y="73" type="curve" smooth="yes"/>
      <point x="179" y="85"/>
      <point x="165" y="105"/>
      <point x="155" y="133" type="curve" smooth="yes"/>
      <point x="144" y="160"/>
      <point x="136" y="193"/>
      <point x="132" y="232" type="curve" smooth="yes"/>
      <point x="126" y="270"/>
      <point x="124" y="309"/>
      <point x="124" y="351" type="curve" smooth="yes"/>
      <point x="124" y="392"/>
      <point x="126" y="432"/>
      <point x="132" y="470" type="curve" smooth="yes"/>
      <point x="137" y="508"/>
      <point x="145" y="541"/>
      <point x="155" y="569" type="curve" smooth="yes"/>
      <point x="165" y="596"/>
      <point x="178" y="616"/>
      <point x="195" y="629" type="curve" smooth="yes"/>
      <point x="211" y="641"/>
      <point x="228" y="648"/>
      <point x="245" y="648" type="curve" smooth="yes"/>
      <point x="261" y="648"/>
      <point x="278" y="641"/>
      <point x="295" y="629" type="curve" smooth="yes"/>
      <point x="311" y="616"/>
      <point x="325" y="596"/>
      <point x="335" y="569" type="curve" smooth="yes"/>
      <point x="345" y="541"/>
      <point x="352" y="508"/>
      <point x="358" y="470" type="curve" smooth="yes"/>
      <point x="363" y="432"/>
      <point x="366" y="392"/>
      <point x="366" y="351" type="curve" smooth="yes"/>
      <point x="366" y="309"/>
      <point x="363" y="270"/>
      <point x="359" y="232" type="curve" smooth="yes"/>
      <point x="353" y="193"/>
      <point x="345" y="160"/>
      <point x="335" y="133" type="curve" smooth="yes"/>
      <point x="324" y="105"/>
      <point x="311" y="85"/>
      <point x="295" y="73" type="curve" smooth="yes"/>
      <point x="278" y="60"/>
      <point x="261" y="54"/>
    </contour>
    <contour>
      <point x="245" y="-11" type="curve" smooth="yes"/>
      <point x="271" y="-11"/>
      <point x="298" y="-3"/>
      <point x="325" y="12" type="curve" smooth="yes"/>
      <point x="351" y="27"/>
      <point x="373" y="51"/>
      <point x="391" y="85" type="curve" smooth="yes"/>
      <point x="408" y="118"/>
      <point x="421" y="158"/>
      <point x="430" y="205" type="curve" smooth="yes"/>
      <point x="438" y="251"/>
      <point x="443" y="300"/>
      <point x="443" y="351" type="curve" smooth="yes"/>
      <point x="443" y="401"/>
      <point x="438" y="450"/>
      <point x="430" y="497" type="curve" smooth="yes"/>
      <point x="421" y="543"/>
      <point x="408" y="583"/>
      <point x="391" y="617" type="curve" smooth="yes"/>
      <point x="373" y="650"/>
      <point x="351" y="674"/>
      <point x="325" y="690" type="curve" smooth="yes"/>
      <point x="298" y="705"/>
      <point x="271" y="713"/>
      <point x="245" y="713" type="curve" smooth="yes"/>
      <point x="218" y="713"/>
      <point x="191" y="705"/>
      <point x="165" y="690" type="curve" smooth="yes"/>
      <point x="138" y="674"/>
      <point x="116" y="650"/>
      <point x="99" y="617" type="curve" smooth="yes"/>
      <point x="81" y="583"/>
      <point x="68" y="543"/>
      <point x="60" y="497" type="curve" smooth="yes"/>
      <point x="51" y="450"/>
      <point x="47" y="401"/>
      <point x="47" y="351" type="curve" smooth="yes"/>
      <point x="47" y="300"/>
      <point x="51" y="251"/>
      <point x="60" y="205" type="curve" smooth="yes"/>
      <point x="68" y="158"/>
      <point x="81" y="118"/>
      <point x="99" y="85" type="curve" smooth="yes"/>
      <point x="116" y="51"/>
      <point x="138" y="27"/>
      <point x="165" y="12" type="curve" smooth="yes"/>
      <point x="191" y="-3"/>
      <point x="218" y="-11"/>
    </contour>
  </outline>
</glyph>
<glyph name="one" format="2">
  <advance width="490"/>
  <unicode hex="0031"/>
  <outline>
    <contour>
      <point x="303" y="-2" type="line"/>
      <point x="303" y="705" type="line"/>
      <point x="237" y="705" type="line"/>
      <point x="105" y="620" type="line"/>
      <point x="105" y="547" type="line"/>
      <point x="229" y="622" type="line"/>
      <point x="229" y="-2" type="line"/>
    </contour>
  </outline>
</glyph>
<glyph name="five" format="2">
  <advance width="490"/>
  <unicode hex="0035"/>
  <outline>
    <contour>
      <point x="441" y="211" type="curve" smooth="yes"/>
      <point x="441" y="275"/>
      <point x="425" y="327"/>
      <point x="394" y="367" type="curve" smooth="yes"/>
      <point x="362" y="406"/>
      <point x="314" y="426"/>
      <point x="251" y="426" type="curve" smooth="yes"/>
      <point x="207" y="426"/>
      <point x="172" y="413"/>
      <point x="144" y="389" type="curve"/>
      <point x="157" y="629" type="line"/>
      <point x="404" y="629" type="line"/>
      <point x="404" y="699" type="line"/>
      <point x="89" y="699" type="line"/>
      <point x="70" y="306" type="line"/>
      <point x="144" y="306" type="line"/>
      <point x="152" y="323"/>
      <point x="165" y="337"/>
      <point x="183" y="349" type="curve" smooth="yes"/>
      <point x="201" y="359"/>
      <point x="220" y="365"/>
      <point x="241" y="365" type="curve" smooth="yes"/>
      <point x="275" y="365"/>
      <point x="305" y="351"/>
      <point x="329" y="325" type="curve" smooth="yes"/>
      <point x="352" y="298"/>
      <point x="364" y="260"/>
      <point x="364" y="211" type="curve" smooth="yes"/>
      <point x="362" y="161"/>
      <point x="348" y="123"/>
      <point x="323" y="95" type="curve" smooth="yes"/>
      <point x="297" y="66"/>
      <point x="267" y="52"/>
      <point x="233" y="52" type="curve" smooth="yes"/>
      <point x="214" y="52"/>
      <point x="198" y="55"/>
      <point x="186" y="61" type="curve" smooth="yes"/>
      <point x="173" y="67"/>
      <point x="163" y="74"/>
      <point x="156" y="82" type="curve" smooth="yes"/>
      <point x="148" y="90"/>
      <point x="143" y="101"/>
      <point x="141" y="113" type="curve" smooth="yes"/>
      <point x="137" y="124"/>
      <point x="135" y="134"/>
      <point x="135" y="142" type="curve"/>
      <point x="53" y="142" type="line"/>
      <point x="53" y="125"/>
      <point x="56" y="108"/>
      <point x="62" y="91" type="curve" smooth="yes"/>
      <point x="68" y="73"/>
      <point x="77" y="56"/>
      <point x="91" y="42" type="curve" smooth="yes"/>
      <point x="105" y="26"/>
      <point x="124" y="14"/>
      <point x="148" y="5" type="curve" smooth="yes"/>
      <point x="171" y="-4"/>
      <point x="199" y="-9"/>
      <point x="233" y="-9" type="curve" smooth="yes"/>
      <point x="265" y="-9"/>
      <point x="294" y="-3"/>
      <point x="322" y="9" type="curve" smooth="yes"/>
      <point x="348" y="20"/>
      <point x="370" y="36"/>
      <point x="387" y="56" type="curve" smooth="yes"/>
      <point x="404" y="76"/>
      <point x="417" y="99"/>
      <point x="427" y="127" type="curve" smooth="yes"/>
      <point x="436" y="153"/>
      <point x="441" y="181"/>
    </contour>
  </outline>
</glyph>
<glyph name="six" format="2">
  <advance width="490"/>
  <unicode hex="0036"/>
  <outline>
    <contour>
      <point x="72" y="124" type="curve" smooth="yes"/>
      <point x="81" y="94"/>
      <point x="94" y="70"/>
      <point x="110" y="50" type="curve" smooth="yes"/>
      <point x="127" y="30"/>
      <point x="149" y="15"/>
      <point x="175" y="6" type="curve" smooth="yes"/>
      <point x="200" y="-4"/>
      <point x="225" y="-9"/>
      <point x="250" y="-9" type="curve" smooth="yes"/>
      <point x="275" y="-9"/>
      <point x="301" y="-4"/>
      <point x="327" y="5" type="curve" smooth="yes"/>
      <point x="352" y="14"/>
      <point x="373" y="29"/>
      <point x="391" y="49" type="curve" smooth="yes"/>
      <point x="407" y="69"/>
      <point x="420" y="93"/>
      <point x="429" y="123" type="curve" smooth="yes"/>
      <point x="437" y="151"/>
      <point x="442" y="181"/>
      <point x="442" y="212" type="curve" smooth="yes"/>
      <point x="442" y="243"/>
      <point x="438" y="273"/>
      <point x="430" y="303" type="curve" smooth="yes"/>
      <point x="421" y="332"/>
      <point x="408" y="356"/>
      <point x="392" y="376" type="curve" smooth="yes"/>
      <point x="374" y="396"/>
      <point x="355" y="411"/>
      <point x="333" y="421" type="curve" smooth="yes"/>
      <point x="310" y="430"/>
      <point x="282" y="435"/>
      <point x="250" y="435" type="curve" smooth="yes"/>
      <point x="223" y="435"/>
      <point x="197" y="427"/>
      <point x="173" y="413" type="curve" smooth="yes"/>
      <point x="153" y="401"/>
      <point x="136" y="385"/>
      <point x="124" y="367" type="curve"/>
      <point x="124" y="404" type="line" smooth="yes"/>
      <point x="124" y="428"/>
      <point x="126" y="455"/>
      <point x="130" y="483" type="curve" smooth="yes"/>
      <point x="134" y="510"/>
      <point x="140" y="536"/>
      <point x="150" y="562" type="curve" smooth="yes"/>
      <point x="159" y="587"/>
      <point x="172" y="608"/>
      <point x="190" y="625" type="curve" smooth="yes"/>
      <point x="207" y="641"/>
      <point x="227" y="649"/>
      <point x="250" y="649" type="curve" smooth="yes"/>
      <point x="266" y="649"/>
      <point x="281" y="646"/>
      <point x="294" y="640" type="curve" smooth="yes"/>
      <point x="306" y="633"/>
      <point x="316" y="625"/>
      <point x="324" y="616" type="curve" smooth="yes"/>
      <point x="331" y="606"/>
      <point x="336" y="595"/>
      <point x="340" y="582" type="curve" smooth="yes"/>
      <point x="342" y="568"/>
      <point x="344" y="558"/>
      <point x="344" y="551" type="curve"/>
      <point x="430" y="551" type="line"/>
      <point x="430" y="567"/>
      <point x="426" y="586"/>
      <point x="419" y="607" type="curve" smooth="yes"/>
      <point x="411" y="627"/>
      <point x="400" y="644"/>
      <point x="386" y="659" type="curve" smooth="yes"/>
      <point x="371" y="673"/>
      <point x="352" y="685"/>
      <point x="330" y="695" type="curve" smooth="yes"/>
      <point x="306" y="704"/>
      <point x="280" y="709"/>
      <point x="252" y="709" type="curve" smooth="yes"/>
      <point x="210" y="709"/>
      <point x="175" y="698"/>
      <point x="149" y="678" type="curve" smooth="yes"/>
      <point x="121" y="656"/>
      <point x="100" y="629"/>
      <point x="86" y="595" type="curve" smooth="yes"/>
      <point x="72" y="561"/>
      <point x="62" y="525"/>
      <point x="57" y="486" type="curve" smooth="yes"/>
      <point x="51" y="446"/>
      <point x="49" y="406"/>
      <point x="49" y="364" type="curve" smooth="yes"/>
      <point x="49" y="304"/>
      <point x="51" y="255"/>
      <point x="56" y="215" type="curve" smooth="yes"/>
      <point x="60" y="175"/>
      <point x="65" y="144"/>
    </contour>
    <contour>
      <point x="367" y="213" type="curve" smooth="yes"/>
      <point x="367" y="191"/>
      <point x="364" y="170"/>
      <point x="359" y="150" type="curve" smooth="yes"/>
      <point x="353" y="130"/>
      <point x="346" y="112"/>
      <point x="336" y="98" type="curve" smooth="yes"/>
      <point x="325" y="83"/>
      <point x="312" y="72"/>
      <point x="298" y="64" type="curve" smooth="yes"/>
      <point x="282" y="56"/>
      <point x="267" y="52"/>
      <point x="251" y="52" type="curve" smooth="yes"/>
      <point x="235" y="52"/>
      <point x="219" y="56"/>
      <point x="205" y="64" type="curve" smooth="yes"/>
      <point x="189" y="72"/>
      <point x="176" y="83"/>
      <point x="166" y="98" type="curve" smooth="yes"/>
      <point x="156" y="112"/>
      <point x="148" y="130"/>
      <point x="143" y="150" type="curve" smooth="yes"/>
      <point x="137" y="170"/>
      <point x="135" y="191"/>
      <point x="135" y="213" type="curve" smooth="yes"/>
      <point x="135" y="235"/>
      <point x="137" y="256"/>
      <point x="143" y="276" type="curve" smooth="yes"/>
      <point x="148" y="296"/>
      <point x="156" y="313"/>
      <point x="166" y="328" type="curve" smooth="yes"/>
      <point x="176" y="342"/>
      <point x="189" y="354"/>
      <point x="205" y="362" type="curve" smooth="yes"/>
      <point x="219" y="370"/>
      <point x="235" y="374"/>
      <point x="251" y="374" type="curve" smooth="yes"/>
      <point x="267" y="374"/>
      <point x="282" y="370"/>
      <point x="298" y="362" type="curve" smooth="yes"/>
      <point x="312" y="354"/>
      <point x="325" y="342"/>
      <point x="336" y="328" type="curve" smooth="yes"/>
      <point x="346" y="313"/>
      <point x="353" y="296"/>
      <point x="359" y="276" type="curve" smooth="yes"/>
      <point x="364" y="256"/>
      <point x="367" y="235"/>
    </contour>
  </outline>
</glyph>
<glyph name="seven" format="2">
  <advance width="490"/>
  <unicode hex="0037"/>
  <outline>
    <contour>
      <point x="436" y="627" type="line"/>
      <point x="436" y="695" type="line"/>
      <point x="52" y="695" type="line"/>
      <point x="52" y="623" type="line"/>
      <point x="357" y="623" type="line"/>
      <point x="125" y="-2" type="line"/>
      <point x="203" y="-2" type="line"/>
    </contour>
  </outline>
</glyph>
<glyph name="eight" format="2">
  <advance width="490"/>
  <unicode hex="0038"/>
  <outline>
    <contour>
      <point x="357" y="523" type="curve" smooth="yes"/>
      <point x="357" y="485"/>
      <point x="346" y="455"/>
      <point x="325" y="432" type="curve" smooth="yes"/>
      <point x="303" y="408"/>
      <point x="276" y="397"/>
      <point x="244" y="397" type="curve" smooth="yes"/>
      <point x="212" y="397"/>
      <point x="186" y="408"/>
      <point x="165" y="432" type="curve" smooth="yes"/>
      <point x="143" y="455"/>
      <point x="133" y="485"/>
      <point x="133" y="523" type="curve" smooth="yes"/>
      <point x="133" y="561"/>
      <point x="144" y="591"/>
      <point x="166" y="615" type="curve" smooth="yes"/>
      <point x="187" y="638"/>
      <point x="213" y="650"/>
      <point x="244" y="650" type="curve" smooth="yes"/>
      <point x="275" y="650"/>
      <point x="302" y="638"/>
      <point x="324" y="615" type="curve" smooth="yes"/>
      <point x="346" y="591"/>
      <point x="357" y="561"/>
    </contour>
    <contour>
      <point x="432" y="523" type="curve" smooth="yes"/>
      <point x="432" y="549"/>
      <point x="427" y="573"/>
      <point x="419" y="596" type="curve" smooth="yes"/>
      <point x="409" y="618"/>
      <point x="396" y="638"/>
      <point x="380" y="655" type="curve" smooth="yes"/>
      <point x="363" y="672"/>
      <point x="342" y="685"/>
      <point x="318" y="695" type="curve" smooth="yes"/>
      <point x="293" y="704"/>
      <point x="268" y="709"/>
      <point x="244" y="709" type="curve" smooth="yes"/>
      <point x="220" y="709"/>
      <point x="195" y="704"/>
      <point x="171" y="695" type="curve" smooth="yes"/>
      <point x="146" y="685"/>
      <point x="125" y="672"/>
      <point x="109" y="655" type="curve" smooth="yes"/>
      <point x="92" y="638"/>
      <point x="79" y="618"/>
      <point x="71" y="596" type="curve" smooth="yes"/>
      <point x="62" y="573"/>
      <point x="58" y="549"/>
      <point x="58" y="523" type="curve" smooth="yes"/>
      <point x="58" y="497"/>
      <point x="62" y="473"/>
      <point x="71" y="451" type="curve" smooth="yes"/>
      <point x="79" y="428"/>
      <point x="91" y="408"/>
      <point x="109" y="392" type="curve" smooth="yes"/>
      <point x="120" y="380"/>
      <point x="134" y="371"/>
      <point x="150" y="365" type="curve"/>
      <point x="132" y="359"/>
      <point x="116" y="349"/>
      <point x="102" y="335" type="curve" smooth="yes"/>
      <point x="84" y="317"/>
      <point x="70" y="296"/>
      <point x="61" y="272" type="curve" smooth="yes"/>
      <point x="51" y="247"/>
      <point x="46" y="220"/>
      <point x="46" y="192" type="curve" smooth="yes"/>
      <point x="46" y="164"/>
      <point x="50" y="138"/>
      <point x="58" y="113" type="curve" smooth="yes"/>
      <point x="66" y="87"/>
      <point x="79" y="65"/>
      <point x="97" y="46" type="curve" smooth="yes"/>
      <point x="115" y="26"/>
      <point x="137" y="12"/>
      <point x="165" y="4" type="curve" smooth="yes"/>
      <point x="191" y="-5"/>
      <point x="218" y="-10"/>
      <point x="244" y="-10" type="curve" smooth="yes"/>
      <point x="270" y="-10"/>
      <point x="296" y="-5"/>
      <point x="324" y="4" type="curve" smooth="yes"/>
      <point x="350" y="12"/>
      <point x="373" y="26"/>
      <point x="391" y="46" type="curve" smooth="yes"/>
      <point x="409" y="65"/>
      <point x="422" y="87"/>
      <point x="430" y="113" type="curve" smooth="yes"/>
      <point x="438" y="138"/>
      <point x="442" y="164"/>
      <point x="442" y="192" type="curve" smooth="yes"/>
      <point x="442" y="220"/>
      <point x="437" y="247"/>
      <point x="428" y="272" type="curve" smooth="yes"/>
      <point x="418" y="296"/>
      <point x="404" y="317"/>
      <point x="386" y="335" type="curve" smooth="yes"/>
      <point x="371" y="349"/>
      <point x="355" y="359"/>
      <point x="338" y="365" type="curve"/>
      <point x="354" y="371"/>
      <point x="368" y="380"/>
      <point x="380" y="392" type="curve" smooth="yes"/>
      <point x="397" y="408"/>
      <point x="410" y="428"/>
      <point x="419" y="451" type="curve" smooth="yes"/>
      <point x="427" y="473"/>
      <point x="432" y="497"/>
    </contour>
    <contour>
      <point x="244" y="53" type="curve" smooth="yes"/>
      <point x="209" y="53"/>
      <point x="180" y="66"/>
      <point x="157" y="92" type="curve" smooth="yes"/>
      <point x="133" y="118"/>
      <point x="122" y="151"/>
      <point x="122" y="192" type="curve" smooth="yes"/>
      <point x="122" y="234"/>
      <point x="134" y="268"/>
      <point x="158" y="295" type="curve" smooth="yes"/>
      <point x="181" y="321"/>
      <point x="210" y="334"/>
      <point x="244" y="334" type="curve" smooth="yes"/>
      <point x="278" y="334"/>
      <point x="307" y="321"/>
      <point x="331" y="295" type="curve" smooth="yes"/>
      <point x="354" y="268"/>
      <point x="366" y="234"/>
      <point x="366" y="192" type="curve" smooth="yes"/>
      <point x="366" y="151"/>
      <point x="354" y="118"/>
      <point x="331" y="92" type="curve" smooth="yes"/>
      <point x="307" y="66"/>
      <point x="278" y="53"/>
    </contour>
  </outline>
</glyph>
<glyph name="semicolon" format="2">
  <advance width="362"/>
  <unicode hex="003B"/>
  <outline>
    <contour>
      <point x="232" y="179" type="line"/>
      <point x="137" y="179" type="line"/>
      <point x="116" y="-45" type="line"/>
      <point x="182" y="-45" type="line"/>
    </contour>
    <contour>
      <point x="231" y="467" type="line"/>
      <point x="231" y="574" type="line"/>
      <point x="131" y="574" type="line"/>
      <point x="131" y="467" type="line"/>
    </contour>
  </outline>
</glyph>
<glyph name="K" format="2">
  <advance width="520"/>
  <unicode hex="004B"/>
  <outline>
    <contour>
      <point x="510" y="6" type="line"/>
      <point x="212" y="378" type="line"/>
      <point x="486" y="707" type="line"/>
      <point x="396" y="707" type="line"/>
      <point x="143" y="404" type="line"/>
      <point x="143" y="707" type="line"/>
      <point x="69" y="707" type="line"/>
      <point x="69" y="6" type="line"/>
      <point x="143" y="6" type="line"/>
      <point x="143" y="338" type="line"/>
      <point x="414" y="6" type="line"/>
    </contour>
  </outline>
</glyph>
<glyph name="L" format="2">
  <advance width="450"/>
  <unicode hex="004C"/>
  <outline>
    <contour>
      <point x="432" y="6" type="line"/>
      <point x="432" y="75" type="line"/>
      <point x="145" y="75" type="line"/>
      <point x="145" y="707" type="line"/>
      <point x="69" y="707" type="line"/>
      <point x="69" y="6" type="line"/>
    </contour>
  </outline>
</glyph>
<glyph name="R" format="2">
  <advance width="522"/>
  <unicode hex="0052"/>
  <outline>
    <contour>
      <point x="478" y="507" type="curve" smooth="yes"/>
      <point x="478" y="545"/>
      <point x="471" y="577"/>
      <point x="457" y="602" type="curve" smooth="yes"/>
      <point x="443" y="626"/>
      <point x="424" y="647"/>
      <point x="402" y="663" type="curve" smooth="yes"/>
      <point x="380" y="677"/>
      <point x="356" y="688"/>
      <point x="329" y="696" type="curve" smooth="yes"/>
      <point x="301" y="703"/>
      <point x="273" y="707"/>
      <point x="245" y="707" type="curve" smooth="yes"/>
      <point x="69" y="707" type="line"/>
      <point x="69" y="6" type="line"/>
      <point x="145" y="6" type="line"/>
      <point x="145" y="305" type="line"/>
      <point x="182" y="305" type="line"/>
      <point x="245" y="305" type="line" smooth="yes"/>
      <point x="282" y="305"/>
      <point x="316" y="282"/>
      <point x="348" y="237" type="curve" smooth="yes"/>
      <point x="375" y="197"/>
      <point x="397" y="120"/>
      <point x="414" y="6" type="curve"/>
      <point x="494" y="6" type="line"/>
      <point x="480" y="86"/>
      <point x="462" y="157"/>
      <point x="440" y="221" type="curve" smooth="yes"/>
      <point x="421" y="275"/>
      <point x="390" y="313"/>
      <point x="347" y="335" type="curve"/>
      <point x="367" y="341"/>
      <point x="386" y="350"/>
      <point x="404" y="362" type="curve" smooth="yes"/>
      <point x="424" y="376"/>
      <point x="442" y="395"/>
      <point x="457" y="421" type="curve" smooth="yes"/>
      <point x="471" y="446"/>
      <point x="478" y="475"/>
    </contour>
    <contour>
      <point x="145" y="377" type="line"/>
      <point x="145" y="639" type="line"/>
      <point x="243" y="639" type="line" smooth="yes"/>
      <point x="261" y="639"/>
      <point x="280" y="636"/>
      <point x="299" y="632" type="curve" smooth="yes"/>
      <point x="317" y="627"/>
      <point x="333" y="620"/>
      <point x="349" y="610" type="curve" smooth="yes"/>
      <point x="364" y="600"/>
      <point x="377" y="586"/>
      <point x="387" y="569" type="curve" smooth="yes"/>
      <point x="397" y="551"/>
      <point x="402" y="531"/>
      <point x="402" y="507" type="curve" smooth="yes"/>
      <point x="402" y="485"/>
      <point x="397" y="465"/>
      <point x="387" y="447" type="curve" smooth="yes"/>
      <point x="377" y="429"/>
      <point x="364" y="415"/>
      <point x="350" y="405" type="curve" smooth="yes"/>
      <point x="335" y="395"/>
      <point x="319" y="388"/>
      <point x="301" y="384" type="curve" smooth="yes"/>
      <point x="282" y="379"/>
      <point x="263" y="377"/>
      <point x="244" y="377" type="curve" smooth="yes"/>
      <point x="182" y="377" type="line"/>
    </contour>
  </outline>
</glyph>
<glyph name="S" format="2">
  <advance width="467"/>
  <unicode hex="0053"/>
  <outline>
    <contour>
      <point x="434" y="195" type="curve" smooth="yes"/>
      <point x="432" y="225"/>
      <point x="427" y="251"/>
      <point x="419" y="271" type="curve" smooth="yes"/>
      <point x="409" y="291"/>
      <point x="397" y="308"/>
      <point x="382" y="322" type="curve" smooth="yes"/>
      <point x="366" y="336"/>
      <point x="347" y="350"/>
      <point x="325" y="366" type="curve" smooth="yes"/>
      <point x="302" y="380"/>
      <point x="268" y="400"/>
      <point x="222" y="424" type="curve" smooth="yes"/>
      <point x="208" y="432"/>
      <point x="195" y="440"/>
      <point x="183" y="449" type="curve" smooth="yes"/>
      <point x="170" y="457"/>
      <point x="159" y="466"/>
      <point x="149" y="476" type="curve" smooth="yes"/>
      <point x="139" y="485"/>
      <point x="131" y="495"/>
      <point x="125" y="507" type="curve" smooth="yes"/>
      <point x="117" y="518"/>
      <point x="114" y="531"/>
      <point x="114" y="546" type="curve" smooth="yes"/>
      <point x="114" y="580"/>
      <point x="125" y="607"/>
      <point x="149" y="627" type="curve" smooth="yes"/>
      <point x="171" y="645"/>
      <point x="199" y="655"/>
      <point x="232" y="655" type="curve" smooth="yes"/>
      <point x="263" y="655"/>
      <point x="295" y="650"/>
      <point x="328" y="640" type="curve" smooth="yes"/>
      <point x="360" y="629"/>
      <point x="382" y="621"/>
      <point x="393" y="615" type="curve"/>
      <point x="393" y="689" type="line"/>
      <point x="375" y="695"/>
      <point x="353" y="701"/>
      <point x="329" y="707" type="curve" smooth="yes"/>
      <point x="315" y="710"/>
      <point x="301" y="713"/>
      <point x="286" y="716" type="curve" smooth="yes"/>
      <point x="270" y="718"/>
      <point x="255" y="720"/>
      <point x="240" y="720" type="curve" smooth="yes"/>
      <point x="180" y="720"/>
      <point x="132" y="705"/>
      <point x="95" y="677" type="curve" smooth="yes"/>
      <point x="57" y="647"/>
      <point x="38" y="601"/>
      <point x="38" y="539" type="curve" smooth="yes"/>
      <point x="38" y="511"/>
      <point x="44" y="487"/>
      <point x="57" y="467" type="curve" smooth="yes"/>
      <point x="69" y="445"/>
      <point x="85" y="426"/>
      <point x="105" y="410" type="curve" smooth="yes"/>
      <point x="125" y="393"/>
      <point x="146" y="378"/>
      <point x="169" y="366" type="curve" smooth="yes"/>
      <point x="191" y="353"/>
      <point x="212" y="341"/>
      <point x="232" y="331" type="curve" smooth="yes"/>
      <point x="259" y="317"/>
      <point x="285" y="299"/>
      <point x="311" y="277" type="curve" smooth="yes"/>
      <point x="323" y="266"/>
      <point x="333" y="253"/>
      <point x="343" y="239" type="curve" smooth="yes"/>
      <point x="351" y="223"/>
      <point x="356" y="205"/>
      <point x="356" y="183" type="curve" smooth="yes"/>
      <point x="356" y="160"/>
      <point x="351" y="141"/>
      <point x="341" y="126" type="curve" smooth="yes"/>
      <point x="331" y="110"/>
      <point x="319" y="97"/>
      <point x="306" y="89" type="curve" smooth="yes"/>
      <point x="292" y="79"/>
      <point x="276" y="73"/>
      <point x="260" y="69" type="curve" smooth="yes"/>
      <point x="243" y="65"/>
      <point x="225" y="63"/>
      <point x="207" y="63" type="curve" smooth="yes"/>
      <point x="189" y="63"/>
      <point x="172" y="65"/>
      <point x="155" y="69" type="curve" smooth="yes"/>
      <point x="137" y="73"/>
      <point x="120" y="77"/>
      <point x="106" y="82" type="curve" smooth="yes"/>
      <point x="80" y="90"/>
      <point x="60" y="98"/>
      <point x="44" y="106" type="curve"/>
      <point x="44" y="24" type="line"/>
      <point x="62" y="18"/>
      <point x="86" y="11"/>
      <point x="115" y="5" type="curve" smooth="yes"/>
      <point x="143" y="-1"/>
      <point x="171" y="-5"/>
      <point x="199" y="-5" type="curve" smooth="yes"/>
      <point x="271" y="-5"/>
      <point x="328" y="11"/>
      <point x="371" y="44" type="curve" smooth="yes"/>
      <point x="413" y="76"/>
      <point x="434" y="127"/>
    </contour>
  </outline>
</glyph>
<glyph name="bracketleft" format="2">
  <advance width="318"/>
  <unicode hex="005B"/>
  <outline>
    <contour>
      <point x="281" y="-133" type="line"/>
      <point x="281" y="-73" type="line"/>
      <point x="184" y="-73" type="line"/>
      <point x="184" y="732" type="line"/>
      <point x="281" y="732" type="line"/>
      <point x="281" y="792" type="line"/>
      <point x="111" y="792" type="line"/>
      <point x="111" y="-133" type="line"/>
    </contour>
  </outline>
</glyph>
<glyph name="backslash" format="2">
  <advance width="890"/>
  <unicode hex="005C"/>
  <outline>
    <contour>
      <point x="843" y="355" type="line"/>
      <point x="843" y="410" type="line"/>
      <point x="721" y="410" type="line"/>
      <point x="770" y="682" type="line"/>
      <point x="703" y="682" type="line"/>
      <point x="656" y="410" type="line"/>
      <point x="541" y="410" type="line"/>
      <point x="484" y="682" type="line"/>
      <point x="411" y="682" type="line"/>
      <point x="354" y="410" type="line"/>
      <point x="239" y="410" type="line"/>
      <point x="192" y="682" type="line"/>
      <point x="125" y="682" type="line"/>
      <point x="174" y="410" type="line"/>
      <point x="53" y="410" type="line"/>
      <point x="53" y="355" type="line"/>
      <point x="184" y="355" type="line"/>
      <point x="248" y="6" type="line"/>
      <point x="328" y="6" type="line"/>
      <point x="401" y="355" type="line"/>
      <point x="494" y="355" type="line"/>
      <point x="567" y="6" type="line"/>
      <point x="647" y="6" type="line"/>
      <point x="711" y="355" type="line"/>
    </contour>
    <contour>
      <point x="647" y="355" type="line"/>
      <point x="604" y="107" type="line"/>
      <point x="552" y="355" type="line"/>
    </contour>
    <contour>
      <point x="343" y="355" type="line"/>
      <point x="291" y="107" type="line"/>
      <point x="248" y="355" type="line"/>
    </contour>
    <contour>
      <point x="412" y="410" type="line"/>
      <point x="447" y="576" type="line"/>
      <point x="482" y="410" type="line"/>
    </contour>
  </outline>
</glyph>
<glyph name="b" format="2">
  <advance width="500"/>
  <unicode hex="0062"/>
  <outline>
    <contour>
      <point x="385" y="252" type="curve" smooth="yes"/>
      <point x="385" y="225"/>
      <point x="382" y="199"/>
      <point x="377" y="175" type="curve" smooth="yes"/>
      <point x="371" y="149"/>
      <point x="362" y="128"/>
      <point x="351" y="110" type="curve" smooth="yes"/>
      <point x="340" y="92"/>
      <point x="326" y="78"/>
      <point x="310" y="70" type="curve" smooth="yes"/>
      <point x="293" y="60"/>
      <point x="277" y="56"/>
      <point x="261" y="56" type="curve" smooth="yes"/>
      <point x="245" y="56"/>
      <point x="229" y="60"/>
      <point x="213" y="70" type="curve" smooth="yes"/>
      <point x="196" y="78"/>
      <point x="182" y="92"/>
      <point x="172" y="110" type="curve" smooth="yes"/>
      <point x="160" y="128"/>
      <point x="152" y="149"/>
      <point x="147" y="175" type="curve" smooth="yes"/>
      <point x="141" y="199"/>
      <point x="138" y="225"/>
      <point x="138" y="252" type="curve" smooth="yes"/>
      <point x="138" y="278"/>
      <point x="141" y="304"/>
      <point x="148" y="328" type="curve" smooth="yes"/>
      <point x="154" y="352"/>
      <point x="162" y="373"/>
      <point x="174" y="391" type="curve" smooth="yes"/>
      <point x="184" y="407"/>
      <point x="198" y="421"/>
      <point x="214" y="432" type="curve" smooth="yes"/>
      <point x="229" y="442"/>
      <point x="245" y="448"/>
      <point x="261" y="448" type="curve" smooth="yes"/>
      <point x="277" y="448"/>
      <point x="293" y="443"/>
      <point x="310" y="434" type="curve" smooth="yes"/>
      <point x="326" y="424"/>
      <point x="339" y="411"/>
      <point x="351" y="394" type="curve" smooth="yes"/>
      <point x="362" y="376"/>
      <point x="371" y="354"/>
      <point x="377" y="330" type="curve" smooth="yes"/>
      <point x="382" y="304"/>
      <point x="385" y="278"/>
    </contour>
    <contour>
      <point x="262" y="-5" type="curve" smooth="yes"/>
      <point x="293" y="-5"/>
      <point x="321" y="0"/>
      <point x="347" y="12" type="curve" smooth="yes"/>
      <point x="372" y="22"/>
      <point x="393" y="39"/>
      <point x="409" y="61" type="curve" smooth="yes"/>
      <point x="425" y="82"/>
      <point x="437" y="110"/>
      <point x="447" y="144" type="curve" smooth="yes"/>
      <point x="456" y="177"/>
      <point x="461" y="215"/>
      <point x="461" y="257" type="curve" smooth="yes"/>
      <point x="461" y="289"/>
      <point x="457" y="321"/>
      <point x="450" y="353" type="curve" smooth="yes"/>
      <point x="442" y="383"/>
      <point x="430" y="410"/>
      <point x="415" y="434" type="curve" smooth="yes"/>
      <point x="399" y="457"/>
      <point x="378" y="476"/>
      <point x="352" y="490" type="curve" smooth="yes"/>
      <point x="326" y="503"/>
      <point x="297" y="510"/>
      <point x="267" y="510" type="curve" smooth="yes"/>
      <point x="213" y="510"/>
      <point x="170" y="484"/>
      <point x="137" y="432" type="curve"/>
      <point x="137" y="707" type="line"/>
      <point x="64" y="707" type="line"/>
      <point x="64" y="257" type="line" smooth="yes"/>
      <point x="64" y="215"/>
      <point x="68" y="177"/>
      <point x="78" y="144" type="curve" smooth="yes"/>
      <point x="87" y="110"/>
      <point x="100" y="82"/>
      <point x="116" y="61" type="curve" smooth="yes"/>
      <point x="132" y="39"/>
      <point x="152" y="22"/>
      <point x="177" y="12" type="curve" smooth="yes"/>
      <point x="201" y="0"/>
      <point x="230" y="-5"/>
    </contour>
  </outline>
</glyph>
<glyph name="e" format="2">
  <advance width="472"/>
  <unicode hex="0065"/>
  <outline>
    <contour>
      <point x="118" y="289" type="line"/>
      <point x="121" y="335"/>
      <point x="133" y="372"/>
      <point x="155" y="400" type="curve" smooth="yes"/>
      <point x="180" y="432"/>
      <point x="212" y="449"/>
      <point x="250" y="449" type="curve" smooth="yes"/>
      <point x="268" y="449"/>
      <point x="285" y="444"/>
      <point x="300" y="436" type="curve" smooth="yes"/>
      <point x="314" y="426"/>
      <point x="325" y="414"/>
      <point x="333" y="400" type="curve" smooth="yes"/>
      <point x="346" y="372"/>
      <point x="353" y="335"/>
      <point x="353" y="289" type="curve"/>
    </contour>
    <contour>
      <point x="119" y="228" type="curve"/>
      <point x="429" y="228" type="line"/>
      <point x="429" y="281" type="line" smooth="yes"/>
      <point x="429" y="354"/>
      <point x="415" y="409"/>
      <point x="389" y="445" type="curve" smooth="yes"/>
      <point x="375" y="464"/>
      <point x="355" y="480"/>
      <point x="330" y="492" type="curve" smooth="yes"/>
      <point x="304" y="504"/>
      <point x="278" y="510"/>
      <point x="250" y="510" type="curve" smooth="yes"/>
      <point x="215" y="510"/>
      <point x="185" y="503"/>
      <point x="159" y="491" type="curve" smooth="yes"/>
      <point x="133" y="478"/>
      <point x="111" y="461"/>
      <point x="94" y="440" type="curve" smooth="yes"/>
      <point x="76" y="418"/>
      <point x="62" y="392"/>
      <point x="53" y="362" type="curve" smooth="yes"/>
      <point x="43" y="332"/>
      <point x="39" y="299"/>
      <point x="39" y="263" type="curve" smooth="yes"/>
      <point x="39" y="218"/>
      <point x="45" y="179"/>
      <point x="58" y="146" type="curve" smooth="yes"/>
      <point x="70" y="112"/>
      <point x="86" y="85"/>
      <point x="106" y="63" type="curve" smooth="yes"/>
      <point x="121" y="45"/>
      <point x="141" y="31"/>
      <point x="167" y="19" type="curve" smooth="yes"/>
      <point x="191" y="6"/>
      <point x="217" y="-1"/>
      <point x="243" y="-4" type="curve" smooth="yes"/>
      <point x="273" y="-7"/>
      <point x="302" y="-6"/>
      <point x="332" y="-1" type="curve" smooth="yes"/>
      <point x="361" y="4"/>
      <point x="389" y="14"/>
      <point x="415" y="30" type="curve"/>
      <point x="415" y="91" type="line"/>
      <point x="391" y="77"/>
      <point x="368" y="68"/>
      <point x="346" y="64" type="curve" smooth="yes"/>
      <point x="324" y="59"/>
      <point x="305" y="57"/>
      <point x="291" y="57" type="curve" smooth="yes"/>
      <point x="271" y="57"/>
      <point x="254" y="59"/>
      <point x="240" y="63" type="curve" smooth="yes"/>
      <point x="225" y="67"/>
      <point x="214" y="71"/>
      <point x="207" y="76" type="curve" smooth="yes"/>
      <point x="186" y="88"/>
      <point x="170" y="103"/>
      <point x="158" y="120" type="curve" smooth="yes"/>
      <point x="146" y="136"/>
      <point x="137" y="154"/>
      <point x="131" y="172" type="curve" smooth="yes"/>
      <point x="125" y="187"/>
      <point x="122" y="202"/>
      <point x="120" y="218" type="curve" smooth="yes"/>
      <point x="119" y="221"/>
      <point x="119" y="224"/>
    </contour>
  </outline>
</glyph>
<glyph name="f" format="2">
  <advance width="350"/>
  <unicode hex="0066"/>
  <outline>
    <contour>
      <point x="346" y="645" type="curve"/>
      <point x="346" y="709" type="line"/>
      <point x="335" y="711"/>
      <point x="322" y="713"/>
      <point x="308" y="716" type="curve" smooth="yes"/>
      <point x="292" y="718"/>
      <point x="276" y="720"/>
      <point x="259" y="720" type="curve" smooth="yes"/>
      <point x="222" y="719"/>
      <point x="194" y="713"/>
      <point x="175" y="702" type="curve" smooth="yes"/>
      <point x="155" y="690"/>
      <point x="139" y="675"/>
      <point x="129" y="658" type="curve" smooth="yes"/>
      <point x="118" y="638"/>
      <point x="112" y="618"/>
      <point x="110" y="596" type="curve" smooth="yes"/>
      <point x="107" y="574"/>
      <point x="106" y="551"/>
      <point x="106" y="527" type="curve" smooth="yes"/>
      <point x="106" y="498" type="line"/>
      <point x="26" y="498" type="line"/>
      <point x="26" y="437" type="line"/>
      <point x="106" y="437" type="line"/>
      <point x="106" y="6" type="line"/>
      <point x="182" y="6" type="line"/>
      <point x="182" y="437" type="line"/>
      <point x="313" y="437" type="line"/>
      <point x="313" y="498" type="line"/>
      <point x="182" y="498" type="line"/>
      <point x="182" y="547" type="line" smooth="yes"/>
      <point x="182" y="563"/>
      <point x="183" y="578"/>
      <point x="185" y="590" type="curve" smooth="yes"/>
      <point x="186" y="602"/>
      <point x="189" y="613"/>
      <point x="195" y="623" type="curve" smooth="yes"/>
      <point x="203" y="636"/>
      <point x="212" y="645"/>
      <point x="222" y="651" type="curve" smooth="yes"/>
      <point x="232" y="656"/>
      <point x="245" y="659"/>
      <point x="263" y="659" type="curve" smooth="yes"/>
      <point x="278" y="659"/>
      <point x="293" y="657"/>
      <point x="307" y="655" type="curve" smooth="yes"/>
      <point x="320" y="652"/>
      <point x="333" y="649"/>
    </contour>
  </outline>
</glyph>
<glyph name="l" format="2">
  <advance width="212"/>
  <unicode hex="006C"/>
  <outline>
    <contour>
      <point x="144" y="6" type="line"/>
      <point x="144" y="707" type="line"/>
      <point x="68" y="707" type="line"/>
      <point x="68" y="6" type="line"/>
    </contour>
  </outline>
</glyph>
<glyph name="o" format="2">
  <advance width="500"/>
  <unicode hex="006F"/>
  <outline>
    <contour>
      <point x="383" y="252" type="curve" smooth="yes"/>
      <point x="383" y="225"/>
      <point x="380" y="199"/>
      <point x="374" y="174" type="curve" smooth="yes"/>
      <point x="368" y="148"/>
      <point x="359" y="127"/>
      <point x="347" y="109" type="curve" smooth="yes"/>
      <point x="335" y="91"/>
      <point x="320" y="77"/>
      <point x="303" y="69" type="curve" smooth="yes"/>
      <point x="285" y="59"/>
      <point x="268" y="55"/>
      <point x="250" y="55" type="curve" smooth="yes"/>
      <point x="232" y="55"/>
      <point x="214" y="59"/>
      <point x="197" y="69" type="curve" smooth="yes"/>
      <point x="179" y="77"/>
      <point x="165" y="91"/>
      <point x="153" y="109" type="curve" smooth="yes"/>
      <point x="141" y="127"/>
      <point x="132" y="148"/>
      <point x="126" y="174" type="curve" smooth="yes"/>
      <point x="120" y="199"/>
      <point x="117" y="225"/>
      <point x="117" y="252" type="curve" smooth="yes"/>
      <point x="117" y="278"/>
      <point x="120" y="305"/>
      <point x="126" y="331" type="curve" smooth="yes"/>
      <point x="132" y="356"/>
      <point x="141" y="378"/>
      <point x="153" y="396" type="curve" smooth="yes"/>
      <point x="165" y="414"/>
      <point x="179" y="427"/>
      <point x="197" y="437" type="curve" smooth="yes"/>
      <point x="214" y="445"/>
      <point x="232" y="450"/>
      <point x="250" y="450" type="curve" smooth="yes"/>
      <point x="268" y="450"/>
      <point x="285" y="445"/>
      <point x="303" y="437" type="curve" smooth="yes"/>
      <point x="320" y="427"/>
      <point x="335" y="414"/>
      <point x="347" y="396" type="curve" smooth="yes"/>
      <point x="359" y="378"/>
      <point x="368" y="356"/>
      <point x="374" y="331" type="curve" smooth="yes"/>
      <point x="380" y="305"/>
      <point x="383" y="278"/>
    </contour>
    <contour>
      <point x="461" y="252" type="curve" smooth="yes"/>
      <point x="461" y="287"/>
      <point x="456" y="321"/>
      <point x="446" y="354" type="curve" smooth="yes"/>
      <point x="436" y="386"/>
      <point x="421" y="414"/>
      <point x="403" y="438" type="curve" smooth="yes"/>
      <point x="383" y="461"/>
      <point x="360" y="479"/>
      <point x="334" y="492" type="curve" smooth="yes"/>
      <point x="306" y="504"/>
      <point x="278" y="510"/>
      <point x="250" y="510" type="curve" smooth="yes"/>
      <point x="221" y="510"/>
      <point x="193" y="504"/>
      <point x="167" y="492" type="curve" smooth="yes"/>
      <point x="139" y="479"/>
      <point x="116" y="461"/>
      <point x="97" y="438" type="curve" smooth="yes"/>
      <point x="78" y="414"/>
      <point x="64" y="386"/>
      <point x="54" y="354" type="curve" smooth="yes"/>
      <point x="44" y="321"/>
      <point x="39" y="287"/>
      <point x="39" y="252" type="curve" smooth="yes"/>
      <point x="39" y="216"/>
      <point x="44" y="183"/>
      <point x="54" y="151" type="curve" smooth="yes"/>
      <point x="64" y="118"/>
      <point x="78" y="90"/>
      <point x="97" y="67" type="curve" smooth="yes"/>
      <point x="116" y="43"/>
      <point x="139" y="26"/>
      <point x="167" y="14" type="curve" smooth="yes"/>
      <point x="193" y="1"/>
      <point x="221" y="-5"/>
      <point x="250" y="-5" type="curve" smooth="yes"/>
      <point x="278" y="-5"/>
      <point x="306" y="1"/>
      <point x="334" y="14" type="curve" smooth="yes"/>
      <point x="360" y="26"/>
      <point x="383" y="43"/>
      <point x="403" y="67" type="curve" smooth="yes"/>
      <point x="421" y="90"/>
      <point x="436" y="118"/>
      <point x="446" y="151" type="curve" smooth="yes"/>
      <point x="456" y="183"/>
      <point x="461" y="216"/>
    </contour>
  </outline>
</glyph>
<glyph name="s" format="2">
  <advance width="394"/>
  <unicode hex="0073"/>
  <outline>
    <contour>
      <point x="361" y="135" type="curve" smooth="yes"/>
      <point x="361" y="166"/>
      <point x="353" y="192"/>
      <point x="337" y="213" type="curve" smooth="yes"/>
      <point x="320" y="233"/>
      <point x="301" y="249"/>
      <point x="279" y="261" type="curve" smooth="yes"/>
      <point x="259" y="271"/>
      <point x="236" y="281"/>
      <point x="208" y="293" type="curve" smooth="yes"/>
      <point x="180" y="303"/>
      <point x="160" y="313"/>
      <point x="148" y="321" type="curve" smooth="yes"/>
      <point x="134" y="330"/>
      <point x="124" y="339"/>
      <point x="119" y="349" type="curve" smooth="yes"/>
      <point x="113" y="358"/>
      <point x="111" y="370"/>
      <point x="111" y="385" type="curve" smooth="yes"/>
      <point x="111" y="405"/>
      <point x="120" y="421"/>
      <point x="138" y="433" type="curve" smooth="yes"/>
      <point x="155" y="444"/>
      <point x="175" y="450"/>
      <point x="198" y="450" type="curve" smooth="yes"/>
      <point x="226" y="450"/>
      <point x="252" y="446"/>
      <point x="278" y="438" type="curve" smooth="yes"/>
      <point x="302" y="429"/>
      <point x="321" y="421"/>
      <point x="333" y="415" type="curve"/>
      <point x="333" y="488" type="line"/>
      <point x="289" y="502"/>
      <point x="247" y="510"/>
      <point x="206" y="510" type="curve" smooth="yes"/>
      <point x="156" y="510"/>
      <point x="115" y="498"/>
      <point x="85" y="475" type="curve" smooth="yes"/>
      <point x="54" y="451"/>
      <point x="39" y="417"/>
      <point x="39" y="375" type="curve" smooth="yes"/>
      <point x="39" y="343"/>
      <point x="47" y="318"/>
      <point x="63" y="300" type="curve" smooth="yes"/>
      <point x="78" y="280"/>
      <point x="95" y="266"/>
      <point x="113" y="257" type="curve" smooth="yes"/>
      <point x="135" y="245"/>
      <point x="158" y="235"/>
      <point x="182" y="226" type="curve" smooth="yes"/>
      <point x="205" y="216"/>
      <point x="224" y="208"/>
      <point x="239" y="200" type="curve" smooth="yes"/>
      <point x="253" y="192"/>
      <point x="265" y="182"/>
      <point x="274" y="171" type="curve" smooth="yes"/>
      <point x="282" y="159"/>
      <point x="287" y="146"/>
      <point x="287" y="130" type="curve" smooth="yes"/>
      <point x="287" y="106"/>
      <point x="274" y="86"/>
      <point x="250" y="71" type="curve" smooth="yes"/>
      <point x="232" y="61"/>
      <point x="206" y="57"/>
      <point x="171" y="57" type="curve" smooth="yes"/>
      <point x="150" y="57"/>
      <point x="126" y="61"/>
      <point x="98" y="71" type="curve" smooth="yes"/>
      <point x="70" y="80"/>
      <point x="49" y="89"/>
      <point x="37" y="97" type="curve"/>
      <point x="37" y="20" type="line"/>
      <point x="89" y="3"/>
      <point x="134" y="-5"/>
      <point x="171" y="-5" type="curve" smooth="yes"/>
      <point x="202" y="-5"/>
      <point x="231" y="-1"/>
      <point x="257" y="5" type="curve" smooth="yes"/>
      <point x="283" y="11"/>
      <point x="303" y="21"/>
      <point x="319" y="34" type="curve" smooth="yes"/>
      <point x="332" y="45"/>
      <point x="342" y="60"/>
      <point x="350" y="78" type="curve" smooth="yes"/>
      <point x="357" y="95"/>
      <point x="361" y="114"/>
    </contour>
  </outline>
</glyph>
<glyph name="t" format="2">
  <advance width="330"/>
  <unicode hex="0074"/>
  <outline>
    <contour>
      <point x="300" y="437" type="line"/>
      <point x="300" y="498" type="line"/>
      <point x="174" y="498" type="line"/>
      <point x="174" y="650" type="line"/>
      <point x="100" y="612" type="line"/>
      <point x="100" y="498" type="line"/>
      <point x="24" y="498" type="line"/>
      <point x="24" y="437" type="line"/>
      <point x="100" y="437" type="line"/>
      <point x="100" y="119" type="line" smooth="yes"/>
      <point x="100" y="77"/>
      <point x="110" y="46"/>
      <point x="132" y="26" type="curve" smooth="yes"/>
      <point x="152" y="5"/>
      <point x="185" y="-5"/>
      <point x="230" y="-5" type="curve" smooth="yes"/>
      <point x="256" y="-5"/>
      <point x="279" y="-3"/>
      <point x="298" y="-1" type="curve"/>
      <point x="298" y="63" type="line"/>
      <point x="278" y="59"/>
      <point x="259" y="57"/>
      <point x="243" y="57" type="curve" smooth="yes"/>
      <point x="227" y="57"/>
      <point x="215" y="59"/>
      <point x="205" y="65" type="curve" smooth="yes"/>
      <point x="194" y="69"/>
      <point x="186" y="77"/>
      <point x="182" y="88" type="curve" smooth="yes"/>
      <point x="176" y="100"/>
      <point x="174" y="113"/>
      <point x="174" y="127" type="curve" smooth="yes"/>
      <point x="174" y="139"/>
      <point x="174" y="153"/>
      <point x="174" y="169" type="curve" smooth="yes"/>
      <point x="174" y="437" type="line"/>
    </contour>
  </outline>
</glyph>
<glyph name="bar" format="2">
  <advance width="303"/>
  <unicode hex="007C"/>
  <outline>
    <contour>
      <point x="184" y="-120" type="line"/>
      <point x="184" y="779" type="line"/>
      <point x="119" y="779" type="line"/>
      <point x="119" y="-120" type="line"/>
    </contour>
  </outline>
</glyph>
<glyph name="dieresis" format="2">
  <advance width="518"/>
  <unicode hex="00A8"/>
  <outline>
    <contour>
      <point x="177" y="780" type="line"/>
      <point x="83" y="780" type="line"/>
      <point x="83" y="680" type="line"/>
      <point x="177" y="680" type="line"/>
    </contour>
    <contour>
      <point x="436" y="780" type="line"/>
      <point x="342" y="780" type="line"/>
      <point x="342" y="680" type="line"/>
      <point x="436" y="680" type="line"/>
    </contour>
  </outline>
</glyph>
<glyph name="copyright" format="2">
  <advance width="838"/>
  <unicode hex="00A9"/>
  <outline>
    <contour>
      <point x="584" y="453" type="line"/>
      <point x="584" y="479"/>
      <point x="579" y="501"/>
      <point x="571" y="520" type="curve" smooth="yes"/>
      <point x="561" y="538"/>
      <point x="549" y="554"/>
      <point x="535" y="568" type="curve" smooth="yes"/>
      <point x="520" y="581"/>
      <point x="503" y="592"/>
      <point x="484" y="600" type="curve" smooth="yes"/>
      <point x="464" y="607"/>
      <point x="443" y="611"/>
      <point x="420" y="611" type="curve" smooth="yes"/>
      <point x="384" y="611"/>
      <point x="353" y="603"/>
      <point x="327" y="588" type="curve" smooth="yes"/>
      <point x="299" y="572"/>
      <point x="277" y="553"/>
      <point x="259" y="529" type="curve" smooth="yes"/>
      <point x="241" y="505"/>
      <point x="228" y="477"/>
      <point x="220" y="445" type="curve" smooth="yes"/>
      <point x="211" y="413"/>
      <point x="207" y="379"/>
      <point x="207" y="345" type="curve" smooth="yes"/>
      <point x="207" y="311"/>
      <point x="211" y="277"/>
      <point x="219" y="244" type="curve" smooth="yes"/>
      <point x="226" y="210"/>
      <point x="239" y="180"/>
      <point x="257" y="153" type="curve" smooth="yes"/>
      <point x="275" y="125"/>
      <point x="300" y="104"/>
      <point x="330" y="88" type="curve" smooth="yes"/>
      <point x="359" y="71"/>
      <point x="390" y="63"/>
      <point x="422" y="63" type="curve" smooth="yes"/>
      <point x="458" y="63"/>
      <point x="491" y="67"/>
      <point x="520" y="76" type="curve" smooth="yes"/>
      <point x="531" y="78"/>
      <point x="540" y="82"/>
      <point x="548" y="86" type="curve" smooth="yes"/>
      <point x="555" y="90"/>
      <point x="561" y="93"/>
      <point x="567" y="96" type="curve"/>
      <point x="567" y="163" type="line"/>
      <point x="549" y="149"/>
      <point x="530" y="138"/>
      <point x="508" y="130" type="curve" smooth="yes"/>
      <point x="485" y="121"/>
      <point x="461" y="117"/>
      <point x="437" y="117" type="curve" smooth="yes"/>
      <point x="407" y="117"/>
      <point x="380" y="125"/>
      <point x="356" y="142" type="curve" smooth="yes"/>
      <point x="332" y="158"/>
      <point x="313" y="179"/>
      <point x="301" y="203" type="curve" smooth="yes"/>
      <point x="288" y="227"/>
      <point x="280" y="253"/>
      <point x="276" y="279" type="curve" smooth="yes"/>
      <point x="271" y="305"/>
      <point x="269" y="327"/>
      <point x="269" y="345" type="curve" smooth="yes"/>
      <point x="269" y="373"/>
      <point x="273" y="402"/>
      <point x="281" y="432" type="curve" smooth="yes"/>
      <point x="289" y="460"/>
      <point x="300" y="484"/>
      <point x="315" y="503" type="curve" smooth="yes"/>
      <point x="329" y="521"/>
      <point x="346" y="535"/>
      <point x="364" y="544" type="curve" smooth="yes"/>
      <point x="382" y="552"/>
      <point x="400" y="557"/>
      <point x="420" y="557" type="curve" smooth="yes"/>
      <point x="432" y="556"/>
      <point x="445" y="554"/>
      <point x="457" y="550" type="curve" smooth="yes"/>
      <point x="468" y="545"/>
      <point x="478" y="539"/>
      <point x="488" y="532" type="curve" smooth="yes"/>
      <point x="497" y="523"/>
      <point x="505" y="513"/>
      <point x="511" y="501" type="curve" smooth="yes"/>
      <point x="517" y="488"/>
      <point x="520" y="472"/>
      <point x="520" y="453" type="curve"/>
    </contour>
    <contour>
      <point x="816" y="331" type="curve" smooth="yes"/>
      <point x="816" y="391"/>
      <point x="805" y="445"/>
      <point x="785" y="494" type="curve" smooth="yes"/>
      <point x="763" y="542"/>
      <point x="735" y="585"/>
      <point x="699" y="621" type="curve" smooth="yes"/>
      <point x="663" y="657"/>
      <point x="621" y="685"/>
      <point x="573" y="707" type="curve" smooth="yes"/>
      <point x="525" y="728"/>
      <point x="473" y="739"/>
      <point x="419" y="739" type="curve" smooth="yes"/>
      <point x="364" y="739"/>
      <point x="313" y="728"/>
      <point x="265" y="707" type="curve" smooth="yes"/>
      <point x="217" y="685"/>
      <point x="175" y="657"/>
      <point x="139" y="621" type="curve" smooth="yes"/>
      <point x="103" y="585"/>
      <point x="74" y="542"/>
      <point x="54" y="494" type="curve" smooth="yes"/>
      <point x="32" y="445"/>
      <point x="22" y="391"/>
      <point x="22" y="331" type="curve" smooth="yes"/>
      <point x="22" y="271"/>
      <point x="32" y="217"/>
      <point x="54" y="169" type="curve" smooth="yes"/>
      <point x="74" y="120"/>
      <point x="103" y="78"/>
      <point x="139" y="42" type="curve" smooth="yes"/>
      <point x="175" y="6"/>
      <point x="217" y="-22"/>
      <point x="265" y="-44" type="curve" smooth="yes"/>
      <point x="313" y="-64"/>
      <point x="364" y="-75"/>
      <point x="419" y="-75" type="curve" smooth="yes"/>
      <point x="473" y="-75"/>
      <point x="525" y="-64"/>
      <point x="573" y="-44" type="curve" smooth="yes"/>
      <point x="621" y="-22"/>
      <point x="663" y="6"/>
      <point x="699" y="42" type="curve" smooth="yes"/>
      <point x="735" y="78"/>
      <point x="763" y="120"/>
      <point x="785" y="169" type="curve" smooth="yes"/>
      <point x="805" y="217"/>
      <point x="816" y="271"/>
    </contour>
    <contour>
      <point x="766" y="331" type="curve" smooth="yes"/>
      <point x="766" y="278"/>
      <point x="756" y="230"/>
      <point x="738" y="188" type="curve" smooth="yes"/>
      <point x="719" y="144"/>
      <point x="694" y="107"/>
      <point x="663" y="75" type="curve" smooth="yes"/>
      <point x="631" y="43"/>
      <point x="595" y="19"/>
      <point x="553" y="1" type="curve" smooth="yes"/>
      <point x="511" y="-17"/>
      <point x="466" y="-27"/>
      <point x="419" y="-27" type="curve" smooth="yes"/>
      <point x="371" y="-27"/>
      <point x="327" y="-17"/>
      <point x="285" y="1" type="curve" smooth="yes"/>
      <point x="243" y="19"/>
      <point x="206" y="43"/>
      <point x="175" y="75" type="curve" smooth="yes"/>
      <point x="143" y="107"/>
      <point x="118" y="144"/>
      <point x="100" y="188" type="curve" smooth="yes"/>
      <point x="81" y="230"/>
      <point x="72" y="278"/>
      <point x="72" y="331" type="curve" smooth="yes"/>
      <point x="72" y="384"/>
      <point x="81" y="432"/>
      <point x="100" y="476" type="curve" smooth="yes"/>
      <point x="118" y="518"/>
      <point x="143" y="556"/>
      <point x="175" y="588" type="curve" smooth="yes"/>
      <point x="206" y="619"/>
      <point x="243" y="644"/>
      <point x="285" y="663" type="curve" smooth="yes"/>
      <point x="327" y="681"/>
      <point x="371" y="691"/>
      <point x="419" y="691" type="curve" smooth="yes"/>
      <point x="466" y="691"/>
      <point x="511" y="681"/>
      <point x="553" y="663" type="curve" smooth="yes"/>
      <point x="595" y="644"/>
      <point x="631" y="619"/>
      <point x="663" y="588" type="curve" smooth="yes"/>
      <point x="694" y="556"/>
      <point x="719" y="518"/>
      <point x="738" y="476" type="curve" smooth="yes"/>
      <point x="756" y="432"/>
      <point x="766" y="384"/>
    </contour>
  </outline>
</glyph>
<glyph name="registered" format="2">
  <advance width="838"/>
  <unicode hex="00AE"/>
  <outline>
    <contour>
      <point x="681" y="237" type="line"/>
      <point x="643" y="237" type="line" smooth="yes"/>
      <point x="634" y="237"/>
      <point x="628" y="235"/>
      <point x="626" y="233" type="curve" smooth="yes"/>
      <point x="623" y="230"/>
      <point x="621" y="227"/>
      <point x="619" y="223" type="curve" smooth="yes"/>
      <point x="617" y="219"/>
      <point x="616" y="214"/>
      <point x="614" y="208" type="curve" smooth="yes"/>
      <point x="611" y="202"/>
      <point x="607" y="195"/>
      <point x="601" y="189" type="curve" smooth="yes"/>
      <point x="595" y="183"/>
      <point x="589" y="178"/>
      <point x="581" y="174" type="curve" smooth="yes"/>
      <point x="572" y="170"/>
      <point x="565" y="168"/>
      <point x="560" y="168" type="curve" smooth="yes"/>
      <point x="277" y="168" type="line"/>
      <point x="281" y="176"/>
      <point x="297" y="188"/>
      <point x="325" y="205" type="curve" smooth="yes"/>
      <point x="352" y="221"/>
      <point x="398" y="240"/>
      <point x="463" y="263" type="curve" smooth="yes"/>
      <point x="481" y="269"/>
      <point x="501" y="276"/>
      <point x="521" y="284" type="curve" smooth="yes"/>
      <point x="541" y="292"/>
      <point x="560" y="302"/>
      <point x="578" y="314" type="curve" smooth="yes"/>
      <point x="596" y="325"/>
      <point x="613" y="338"/>
      <point x="628" y="354" type="curve" smooth="yes"/>
      <point x="642" y="368"/>
      <point x="653" y="386"/>
      <point x="661" y="407" type="curve" smooth="yes"/>
      <point x="671" y="433"/>
      <point x="674" y="459"/>
      <point x="672" y="485" type="curve" smooth="yes"/>
      <point x="668" y="509"/>
      <point x="660" y="532"/>
      <point x="647" y="552" type="curve" smooth="yes"/>
      <point x="634" y="572"/>
      <point x="617" y="589"/>
      <point x="596" y="604" type="curve" smooth="yes"/>
      <point x="574" y="618"/>
      <point x="551" y="628"/>
      <point x="526" y="634" type="curve" smooth="yes"/>
      <point x="512" y="636"/>
      <point x="494" y="639"/>
      <point x="472" y="642" type="curve" smooth="yes"/>
      <point x="450" y="644"/>
      <point x="425" y="645"/>
      <point x="399" y="645" type="curve" smooth="yes"/>
      <point x="373" y="643"/>
      <point x="346" y="639"/>
      <point x="319" y="632" type="curve" smooth="yes"/>
      <point x="291" y="624"/>
      <point x="266" y="612"/>
      <point x="243" y="596" type="curve" smooth="yes"/>
      <point x="231" y="586"/>
      <point x="219" y="576"/>
      <point x="209" y="564" type="curve" smooth="yes"/>
      <point x="198" y="551"/>
      <point x="190" y="537"/>
      <point x="184" y="523" type="curve" smooth="yes"/>
      <point x="178" y="508"/>
      <point x="176" y="492"/>
      <point x="177" y="476" type="curve" smooth="yes"/>
      <point x="177" y="459"/>
      <point x="182" y="442"/>
      <point x="192" y="426" type="curve" smooth="yes"/>
      <point x="198" y="413"/>
      <point x="208" y="404"/>
      <point x="221" y="399" type="curve" smooth="yes"/>
      <point x="233" y="393"/>
      <point x="246" y="390"/>
      <point x="260" y="392" type="curve" smooth="yes"/>
      <point x="273" y="393"/>
      <point x="286" y="398"/>
      <point x="298" y="408" type="curve" smooth="yes"/>
      <point x="310" y="417"/>
      <point x="318" y="431"/>
      <point x="324" y="449" type="curve" smooth="yes"/>
      <point x="327" y="461"/>
      <point x="328" y="472"/>
      <point x="327" y="483" type="curve" smooth="yes"/>
      <point x="325" y="493"/>
      <point x="322" y="503"/>
      <point x="319" y="511" type="curve" smooth="yes"/>
      <point x="315" y="519"/>
      <point x="312" y="525"/>
      <point x="309" y="530" type="curve" smooth="yes"/>
      <point x="305" y="534"/>
      <point x="304" y="537"/>
      <point x="305" y="537" type="curve" smooth="yes"/>
      <point x="305" y="537"/>
      <point x="307" y="539"/>
      <point x="312" y="543" type="curve" smooth="yes"/>
      <point x="316" y="547"/>
      <point x="323" y="551"/>
      <point x="334" y="555" type="curve" smooth="yes"/>
      <point x="344" y="559"/>
      <point x="358" y="563"/>
      <point x="375" y="567" type="curve" smooth="yes"/>
      <point x="391" y="569"/>
      <point x="412" y="570"/>
      <point x="437" y="568" type="curve" smooth="yes"/>
      <point x="456" y="566"/>
      <point x="473" y="560"/>
      <point x="487" y="550" type="curve" smooth="yes"/>
      <point x="500" y="539"/>
      <point x="509" y="526"/>
      <point x="515" y="510" type="curve" smooth="yes"/>
      <point x="521" y="494"/>
      <point x="522" y="477"/>
      <point x="519" y="459" type="curve" smooth="yes"/>
      <point x="515" y="439"/>
      <point x="507" y="420"/>
      <point x="494" y="402" type="curve" smooth="yes"/>
      <point x="484" y="389"/>
      <point x="473" y="378"/>
      <point x="460" y="369" type="curve" smooth="yes"/>
      <point x="446" y="359"/>
      <point x="430" y="350"/>
      <point x="413" y="341" type="curve" smooth="yes"/>
      <point x="395" y="331"/>
      <point x="377" y="321"/>
      <point x="357" y="311" type="curve" smooth="yes"/>
      <point x="337" y="300"/>
      <point x="316" y="287"/>
      <point x="294" y="273" type="curve" smooth="yes"/>
      <point x="254" y="245"/>
      <point x="222" y="216"/>
      <point x="198" y="187" type="curve" smooth="yes"/>
      <point x="173" y="157"/>
      <point x="161" y="127"/>
      <point x="161" y="99" type="curve" smooth="yes"/>
      <point x="161" y="29" type="line"/>
      <point x="664" y="29" type="line"/>
    </contour>
    <contour>
      <point x="152" y="-78" type="line" smooth="yes"/>
      <point x="140" y="-78"/>
      <point x="129" y="-76"/>
      <point x="117" y="-72" type="curve" smooth="yes"/>
      <point x="104" y="-67"/>
      <point x="94" y="-61"/>
      <point x="88" y="-53" type="curve" smooth="yes"/>
      <point x="77" y="-43"/>
      <point x="70" y="-30"/>
      <point x="66" y="-14" type="curve" smooth="yes"/>
      <point x="62" y="2"/>
      <point x="60" y="19"/>
      <point x="60" y="35" type="curve" smooth="yes"/>
      <point x="60" y="631" type="line" smooth="yes"/>
      <point x="60" y="643"/>
      <point x="61" y="657"/>
      <point x="65" y="673" type="curve" smooth="yes"/>
      <point x="67" y="688"/>
      <point x="72" y="700"/>
      <point x="79" y="709" type="curve" smooth="yes"/>
      <point x="88" y="721"/>
      <point x="100" y="729"/>
      <point x="114" y="735" type="curve" smooth="yes"/>
      <point x="128" y="739"/>
      <point x="141" y="742"/>
      <point x="155" y="742" type="curve" smooth="yes"/>
      <point x="680" y="742" type="line" smooth="yes"/>
      <point x="694" y="742"/>
      <point x="708" y="739"/>
      <point x="722" y="735" type="curve" smooth="yes"/>
      <point x="735" y="729"/>
      <point x="747" y="721"/>
      <point x="757" y="709" type="curve" smooth="yes"/>
      <point x="763" y="700"/>
      <point x="768" y="688"/>
      <point x="772" y="673" type="curve" smooth="yes"/>
      <point x="775" y="657"/>
      <point x="777" y="643"/>
      <point x="777" y="631" type="curve" smooth="yes"/>
      <point x="777" y="35" type="line" smooth="yes"/>
      <point x="777" y="19"/>
      <point x="774" y="2"/>
      <point x="770" y="-14" type="curve" smooth="yes"/>
      <point x="765" y="-30"/>
      <point x="758" y="-43"/>
      <point x="748" y="-53" type="curve" smooth="yes"/>
      <point x="740" y="-61"/>
      <point x="731" y="-67"/>
      <point x="719" y="-72" type="curve" smooth="yes"/>
      <point x="707" y="-76"/>
      <point x="694" y="-78"/>
      <point x="682" y="-78" type="curve" smooth="yes"/>
    </contour>
    <contour>
      <point x="166" y="773" type="line" smooth="yes"/>
      <point x="160" y="773"/>
      <point x="153" y="772"/>
      <point x="144" y="772" type="curve" smooth="yes"/>
      <point x="134" y="771"/>
      <point x="124" y="769"/>
      <point x="113" y="767" type="curve" smooth="yes"/>
      <point x="102" y="764"/>
      <point x="92" y="760"/>
      <point x="82" y="755" type="curve" smooth="yes"/>
      <point x="71" y="749"/>
      <point x="62" y="741"/>
      <point x="56" y="732" type="curve" smooth="yes"/>
      <point x="44" y="716"/>
      <point x="36" y="698"/>
      <point x="33" y="680" type="curve" smooth="yes"/>
      <point x="29" y="661"/>
      <point x="28" y="646"/>
      <point x="28" y="634" type="curve" smooth="yes"/>
      <point x="28" y="46" type="line" smooth="yes"/>
      <point x="28" y="40"/>
      <point x="28" y="31"/>
      <point x="29" y="21" type="curve" smooth="yes"/>
      <point x="29" y="10"/>
      <point x="31" y="-1"/>
      <point x="34" y="-13" type="curve" smooth="yes"/>
      <point x="36" y="-25"/>
      <point x="39" y="-36"/>
      <point x="45" y="-48" type="curve" smooth="yes"/>
      <point x="49" y="-59"/>
      <point x="56" y="-68"/>
      <point x="65" y="-76" type="curve" smooth="yes"/>
      <point x="78" y="-88"/>
      <point x="93" y="-97"/>
      <point x="111" y="-102" type="curve" smooth="yes"/>
      <point x="127" y="-106"/>
      <point x="142" y="-109"/>
      <point x="154" y="-109" type="curve" smooth="yes"/>
      <point x="680" y="-109" type="line" smooth="yes"/>
      <point x="692" y="-109"/>
      <point x="707" y="-106"/>
      <point x="724" y="-102" type="curve" smooth="yes"/>
      <point x="740" y="-97"/>
      <point x="756" y="-88"/>
      <point x="770" y="-76" type="curve" smooth="yes"/>
      <point x="778" y="-68"/>
      <point x="785" y="-59"/>
      <point x="791" y="-48" type="curve" smooth="yes"/>
      <point x="795" y="-36"/>
      <point x="799" y="-25"/>
      <point x="801" y="-13" type="curve" smooth="yes"/>
      <point x="803" y="-1"/>
      <point x="805" y="10"/>
      <point x="807" y="21" type="curve" smooth="yes"/>
      <point x="807" y="31"/>
      <point x="808" y="40"/>
      <point x="808" y="46" type="curve" smooth="yes"/>
      <point x="808" y="634" type="line" smooth="yes"/>
      <point x="808" y="646"/>
      <point x="806" y="661"/>
      <point x="803" y="680" type="curve" smooth="yes"/>
      <point x="799" y="698"/>
      <point x="791" y="716"/>
      <point x="780" y="732" type="curve" smooth="yes"/>
      <point x="773" y="741"/>
      <point x="765" y="749"/>
      <point x="755" y="755" type="curve" smooth="yes"/>
      <point x="744" y="760"/>
      <point x="733" y="764"/>
      <point x="722" y="767" type="curve" smooth="yes"/>
      <point x="711" y="769"/>
      <point x="701" y="771"/>
      <point x="692" y="772" type="curve" smooth="yes"/>
      <point x="682" y="772"/>
      <point x="675" y="773"/>
      <point x="669" y="773" type="curve" smooth="yes"/>
    </contour>
  </outline>
</glyph>
<glyph name="uni00B2" format="2">
  <advance width="348"/>
  <unicode hex="00B2"/>
  <outline>
    <contour>
      <point x="69" y="389" type="curve" smooth="yes"/>
      <point x="69" y="336" type="line"/>
      <point x="284" y="336" type="line"/>
      <point x="284" y="393" type="line"/>
      <point x="146" y="393" type="line"/>
      <point x="175" y="426"/>
      <point x="200" y="456"/>
      <point x="220" y="484" type="curve" smooth="yes"/>
      <point x="240" y="510"/>
      <point x="255" y="539"/>
      <point x="267" y="570" type="curve" smooth="yes"/>
      <point x="270" y="579"/>
      <point x="273" y="590"/>
      <point x="275" y="603" type="curve" smooth="yes"/>
      <point x="276" y="615"/>
      <point x="277" y="626"/>
      <point x="277" y="635" type="curve" smooth="yes"/>
      <point x="277" y="669"/>
      <point x="267" y="697"/>
      <point x="247" y="719" type="curve" smooth="yes"/>
      <point x="227" y="739"/>
      <point x="201" y="750"/>
      <point x="171" y="750" type="curve" smooth="yes"/>
      <point x="150" y="750"/>
      <point x="133" y="746"/>
      <point x="120" y="738" type="curve" smooth="yes"/>
      <point x="106" y="729"/>
      <point x="96" y="719"/>
      <point x="88" y="707" type="curve" smooth="yes"/>
      <point x="80" y="695"/>
      <point x="74" y="682"/>
      <point x="71" y="669" type="curve" smooth="yes"/>
      <point x="67" y="655"/>
      <point x="66" y="644"/>
      <point x="66" y="634" type="curve"/>
      <point x="125" y="634" type="line"/>
      <point x="123" y="652"/>
      <point x="127" y="668"/>
      <point x="135" y="680" type="curve" smooth="yes"/>
      <point x="143" y="691"/>
      <point x="155" y="697"/>
      <point x="171" y="697" type="curve" smooth="yes"/>
      <point x="189" y="697"/>
      <point x="202" y="690"/>
      <point x="210" y="676" type="curve" smooth="yes"/>
      <point x="216" y="661"/>
      <point x="220" y="649"/>
      <point x="220" y="639" type="curve" smooth="yes"/>
      <point x="220" y="631"/>
      <point x="219" y="622"/>
      <point x="218" y="612" type="curve" smooth="yes"/>
      <point x="216" y="601"/>
      <point x="215" y="593"/>
      <point x="213" y="587" type="curve" smooth="yes"/>
      <point x="199" y="550"/>
      <point x="175" y="511"/>
      <point x="142" y="471" type="curve" smooth="yes"/>
      <point x="108" y="429"/>
      <point x="87" y="406"/>
      <point x="81" y="400" type="curve" smooth="yes"/>
      <point x="79" y="398"/>
      <point x="77" y="396"/>
      <point x="75" y="395" type="curve" smooth="yes"/>
      <point x="73" y="393"/>
      <point x="71" y="391"/>
    </contour>
  </outline>
</glyph>
<glyph name="threequarters" format="2">
  <advance width="838"/>
  <unicode hex="00BE"/>
  <outline>
    <contour>
      <point x="131" y="-61" type="line"/>
      <point x="726" y="711" type="line"/>
      <point x="679" y="747" type="line"/>
      <point x="84" y="-25" type="line"/>
    </contour>
    <contour>
      <point x="609" y="43" type="line"/>
      <point x="609" y="-63" type="line"/>
      <point x="668" y="-63" type="line"/>
      <point x="668" y="43" type="line"/>
      <point x="724" y="43" type="line"/>
      <point x="724" y="100" type="line"/>
      <point x="668" y="100" type="line"/>
      <point x="668" y="350" type="line"/>
      <point x="610" y="350" type="line"/>
      <point x="471" y="90" type="line"/>
      <point x="471" y="43" type="line"/>
    </contour>
    <contour>
      <point x="609" y="244" type="line"/>
      <point x="609" y="100" type="line"/>
      <point x="535" y="100" type="line"/>
    </contour>
    <contour>
      <point x="257" y="550" type="curve"/>
      <point x="265" y="553"/>
      <point x="275" y="562"/>
      <point x="286" y="577" type="curve" smooth="yes"/>
      <point x="296" y="591"/>
      <point x="301" y="612"/>
      <point x="301" y="638" type="curve" smooth="yes"/>
      <point x="301" y="655"/>
      <point x="297" y="671"/>
      <point x="291" y="685" type="curve" smooth="yes"/>
      <point x="284" y="698"/>
      <point x="276" y="709"/>
      <point x="266" y="719" type="curve" smooth="yes"/>
      <point x="256" y="729"/>
      <point x="244" y="736"/>
      <point x="231" y="742" type="curve" smooth="yes"/>
      <point x="217" y="746"/>
      <point x="204" y="749"/>
      <point x="190" y="749" type="curve" smooth="yes"/>
      <point x="171" y="749"/>
      <point x="155" y="746"/>
      <point x="142" y="740" type="curve" smooth="yes"/>
      <point x="128" y="733"/>
      <point x="117" y="725"/>
      <point x="109" y="715" type="curve" smooth="yes"/>
      <point x="100" y="705"/>
      <point x="94" y="695"/>
      <point x="90" y="684" type="curve" smooth="yes"/>
      <point x="85" y="672"/>
      <point x="83" y="660"/>
      <point x="83" y="650" type="curve"/>
      <point x="142" y="650" type="line"/>
      <point x="144" y="664"/>
      <point x="149" y="675"/>
      <point x="158" y="684" type="curve" smooth="yes"/>
      <point x="166" y="692"/>
      <point x="178" y="697"/>
      <point x="194" y="697" type="curve" smooth="yes"/>
      <point x="206" y="697"/>
      <point x="217" y="691"/>
      <point x="226" y="681" type="curve" smooth="yes"/>
      <point x="234" y="670"/>
      <point x="239" y="656"/>
      <point x="239" y="638" type="curve" smooth="yes"/>
      <point x="239" y="615"/>
      <point x="232" y="599"/>
      <point x="220" y="590" type="curve" smooth="yes"/>
      <point x="207" y="580"/>
      <point x="189" y="576"/>
      <point x="165" y="576" type="curve"/>
      <point x="165" y="524" type="line"/>
      <point x="187" y="524"/>
      <point x="205" y="519"/>
      <point x="221" y="511" type="curve" smooth="yes"/>
      <point x="235" y="501"/>
      <point x="243" y="482"/>
      <point x="243" y="454" type="curve" smooth="yes"/>
      <point x="243" y="432"/>
      <point x="238" y="414"/>
      <point x="230" y="402" type="curve" smooth="yes"/>
      <point x="220" y="388"/>
      <point x="207" y="382"/>
      <point x="189" y="382" type="curve" smooth="yes"/>
      <point x="172" y="382"/>
      <point x="160" y="387"/>
      <point x="153" y="397" type="curve" smooth="yes"/>
      <point x="145" y="407"/>
      <point x="141" y="418"/>
      <point x="141" y="430" type="curve"/>
      <point x="75" y="430" type="line"/>
      <point x="78" y="402"/>
      <point x="89" y="378"/>
      <point x="107" y="359" type="curve" smooth="yes"/>
      <point x="125" y="339"/>
      <point x="153" y="329"/>
      <point x="191" y="329" type="curve" smooth="yes"/>
      <point x="229" y="329"/>
      <point x="258" y="341"/>
      <point x="278" y="366" type="curve" smooth="yes"/>
      <point x="298" y="390"/>
      <point x="308" y="419"/>
      <point x="308" y="453" type="curve" smooth="yes"/>
      <point x="308" y="481"/>
      <point x="302" y="504"/>
      <point x="290" y="520" type="curve" smooth="yes"/>
      <point x="277" y="536"/>
      <point x="266" y="546"/>
    </contour>
  </outline>
</glyph>
<glyph name="Thorn" format="2">
  <advance width="525"/>
  <unicode hex="00DE"/>
  <outline>
    <contour>
      <point x="145" y="707" type="line"/>
      <point x="74" y="707" type="line"/>
      <point x="74" y="6" type="line"/>
      <point x="145" y="6" type="line"/>
      <point x="145" y="136" type="line"/>
      <point x="264" y="136" type="line" smooth="yes"/>
      <point x="290" y="136"/>
      <point x="316" y="139"/>
      <point x="342" y="146" type="curve" smooth="yes"/>
      <point x="368" y="152"/>
      <point x="391" y="164"/>
      <point x="412" y="180" type="curve" smooth="yes"/>
      <point x="432" y="195"/>
      <point x="449" y="215"/>
      <point x="463" y="241" type="curve" smooth="yes"/>
      <point x="476" y="266"/>
      <point x="483" y="297"/>
      <point x="483" y="335" type="curve" smooth="yes"/>
      <point x="483" y="369"/>
      <point x="476" y="400"/>
      <point x="463" y="426" type="curve" smooth="yes"/>
      <point x="449" y="451"/>
      <point x="432" y="472"/>
      <point x="410" y="489" type="curve" smooth="yes"/>
      <point x="386" y="505"/>
      <point x="360" y="518"/>
      <point x="330" y="527" type="curve" smooth="yes"/>
      <point x="299" y="535"/>
      <point x="266" y="539"/>
      <point x="231" y="539" type="curve" smooth="yes"/>
      <point x="145" y="539" type="line"/>
    </contour>
    <contour>
      <point x="145" y="475" type="line"/>
      <point x="259" y="475" type="line" smooth="yes"/>
      <point x="277" y="475"/>
      <point x="295" y="472"/>
      <point x="313" y="467" type="curve" smooth="yes"/>
      <point x="331" y="461"/>
      <point x="347" y="453"/>
      <point x="361" y="442" type="curve" smooth="yes"/>
      <point x="375" y="431"/>
      <point x="386" y="417"/>
      <point x="396" y="400" type="curve" smooth="yes"/>
      <point x="405" y="382"/>
      <point x="410" y="361"/>
      <point x="410" y="337" type="curve" smooth="yes"/>
      <point x="408" y="286"/>
      <point x="392" y="251"/>
      <point x="363" y="231" type="curve" smooth="yes"/>
      <point x="333" y="211"/>
      <point x="296" y="201"/>
      <point x="251" y="201" type="curve" smooth="yes"/>
      <point x="145" y="201" type="line"/>
    </contour>
  </outline>
</glyph>
<glyph name="ae" format="2">
  <advance width="727"/>
  <unicode hex="00E6"/>
  <outline>
    <contour>
      <point x="677" y="297" type="line" smooth="yes"/>
      <point x="677" y="324"/>
      <point x="674" y="352"/>
      <point x="670" y="382" type="curve" smooth="yes"/>
      <point x="665" y="411"/>
      <point x="656" y="435"/>
      <point x="643" y="455" type="curve" smooth="yes"/>
      <point x="629" y="474"/>
      <point x="612" y="488"/>
      <point x="591" y="497" type="curve" smooth="yes"/>
      <point x="569" y="505"/>
      <point x="545" y="510"/>
      <point x="518" y="510" type="curve" smooth="yes"/>
      <point x="482" y="510"/>
      <point x="452" y="503"/>
      <point x="428" y="491" type="curve" smooth="yes"/>
      <point x="403" y="477"/>
      <point x="383" y="459"/>
      <point x="367" y="436" type="curve"/>
      <point x="355" y="458"/>
      <point x="337" y="476"/>
      <point x="314" y="490" type="curve" smooth="yes"/>
      <point x="290" y="503"/>
      <point x="261" y="510"/>
      <point x="226" y="510" type="curve" smooth="yes"/>
      <point x="198" y="510"/>
      <point x="173" y="506"/>
      <point x="153" y="498" type="curve" smooth="yes"/>
      <point x="132" y="489"/>
      <point x="114" y="478"/>
      <point x="100" y="465" type="curve" smooth="yes"/>
      <point x="86" y="451"/>
      <point x="75" y="437"/>
      <point x="69" y="421" type="curve" smooth="yes"/>
      <point x="62" y="404"/>
      <point x="59" y="387"/>
      <point x="59" y="371" type="curve"/>
      <point x="137" y="371" type="line"/>
      <point x="137" y="395"/>
      <point x="145" y="414"/>
      <point x="161" y="429" type="curve" smooth="yes"/>
      <point x="176" y="443"/>
      <point x="198" y="451"/>
      <point x="226" y="451" type="curve" smooth="yes"/>
      <point x="248" y="451"/>
      <point x="265" y="447"/>
      <point x="278" y="439" type="curve" smooth="yes"/>
      <point x="290" y="430"/>
      <point x="300" y="420"/>
      <point x="306" y="409" type="curve" smooth="yes"/>
      <point x="312" y="397"/>
      <point x="317" y="385"/>
      <point x="319" y="371" type="curve" smooth="yes"/>
      <point x="320" y="356"/>
      <point x="321" y="346"/>
      <point x="321" y="342" type="curve" smooth="yes"/>
      <point x="321" y="291" type="line"/>
      <point x="296" y="291"/>
      <point x="268" y="289"/>
      <point x="237" y="287" type="curve" smooth="yes"/>
      <point x="205" y="284"/>
      <point x="176" y="277"/>
      <point x="148" y="267" type="curve" smooth="yes"/>
      <point x="120" y="256"/>
      <point x="96" y="240"/>
      <point x="77" y="218" type="curve" smooth="yes"/>
      <point x="57" y="195"/>
      <point x="48" y="164"/>
      <point x="48" y="124" type="curve" smooth="yes"/>
      <point x="48" y="104"/>
      <point x="51" y="86"/>
      <point x="59" y="70" type="curve" smooth="yes"/>
      <point x="65" y="54"/>
      <point x="74" y="40"/>
      <point x="85" y="29" type="curve" smooth="yes"/>
      <point x="97" y="17"/>
      <point x="110" y="9"/>
      <point x="125" y="4" type="curve" smooth="yes"/>
      <point x="139" y="-2"/>
      <point x="153" y="-5"/>
      <point x="169" y="-5" type="curve" smooth="yes"/>
      <point x="221" y="-5"/>
      <point x="261" y="4"/>
      <point x="290" y="23" type="curve" smooth="yes"/>
      <point x="318" y="41"/>
      <point x="340" y="68"/>
      <point x="356" y="103" type="curve"/>
      <point x="376" y="63"/>
      <point x="402" y="35"/>
      <point x="434" y="19" type="curve" smooth="yes"/>
      <point x="465" y="3"/>
      <point x="503" y="-5"/>
      <point x="549" y="-5" type="curve" smooth="yes"/>
      <point x="569" y="-5"/>
      <point x="589" y="-3"/>
      <point x="609" y="0" type="curve" smooth="yes"/>
      <point x="628" y="3"/>
      <point x="646" y="8"/>
      <point x="664" y="14" type="curve"/>
      <point x="664" y="70" type="line"/>
      <point x="644" y="63"/>
      <point x="625" y="59"/>
      <point x="607" y="57" type="curve" smooth="yes"/>
      <point x="588" y="55"/>
      <point x="575" y="54"/>
      <point x="569" y="54" type="curve" smooth="yes"/>
      <point x="510" y="54"/>
      <point x="466" y="68"/>
      <point x="438" y="97" type="curve" smooth="yes"/>
      <point x="409" y="125"/>
      <point x="393" y="173"/>
      <point x="389" y="239" type="curve"/>
      <point x="677" y="239" type="line"/>
    </contour>
    <contour>
      <point x="321" y="190" type="line" smooth="yes"/>
      <point x="321" y="164"/>
      <point x="318" y="146"/>
      <point x="313" y="136" type="curve" smooth="yes"/>
      <point x="301" y="112"/>
      <point x="284" y="93"/>
      <point x="262" y="77" type="curve" smooth="yes"/>
      <point x="252" y="69"/>
      <point x="241" y="64"/>
      <point x="231" y="60" type="curve" smooth="yes"/>
      <point x="219" y="56"/>
      <point x="209" y="54"/>
      <point x="201" y="54" type="curve" smooth="yes"/>
      <point x="180" y="54"/>
      <point x="161" y="59"/>
      <point x="145" y="70" type="curve" smooth="yes"/>
      <point x="128" y="80"/>
      <point x="120" y="102"/>
      <point x="120" y="134" type="curve" smooth="yes"/>
      <point x="120" y="159"/>
      <point x="127" y="179"/>
      <point x="141" y="194" type="curve" smooth="yes"/>
      <point x="155" y="208"/>
      <point x="172" y="218"/>
      <point x="193" y="225" type="curve" smooth="yes"/>
      <point x="213" y="231"/>
      <point x="235" y="236"/>
      <point x="259" y="238" type="curve" smooth="yes"/>
      <point x="281" y="239"/>
      <point x="302" y="240"/>
      <point x="321" y="240" type="curve"/>
    </contour>
    <contour>
      <point x="515" y="451" type="curve" smooth="yes"/>
      <point x="533" y="451"/>
      <point x="548" y="447"/>
      <point x="562" y="439" type="curve" smooth="yes"/>
      <point x="574" y="430"/>
      <point x="584" y="419"/>
      <point x="591" y="406" type="curve" smooth="yes"/>
      <point x="597" y="394"/>
      <point x="600" y="377"/>
      <point x="602" y="355" type="curve" smooth="yes"/>
      <point x="603" y="333"/>
      <point x="604" y="313"/>
      <point x="604" y="297" type="curve"/>
      <point x="389" y="297" type="line"/>
      <point x="391" y="344"/>
      <point x="404" y="382"/>
      <point x="426" y="410" type="curve" smooth="yes"/>
      <point x="447" y="437"/>
      <point x="477" y="451"/>
    </contour>
  </outline>
</glyph>
<glyph name="eth" format="2">
  <advance width="516"/>
  <unicode hex="00F0"/>
  <outline>
    <contour>
      <point x="308" y="645" type="line"/>
      <point x="282" y="665"/>
      <point x="252" y="680"/>
      <point x="220" y="692" type="curve" smooth="yes"/>
      <point x="186" y="702"/>
      <point x="151" y="709"/>
      <point x="114" y="713" type="curve"/>
      <point x="114" y="657" type="line"/>
      <point x="140" y="652"/>
      <point x="165" y="646"/>
      <point x="189" y="639" type="curve" smooth="yes"/>
      <point x="212" y="631"/>
      <point x="233" y="621"/>
      <point x="252" y="609" type="curve"/>
      <point x="146" y="539" type="line"/>
      <point x="171" y="493" type="line"/>
      <point x="290" y="572" type="line"/>
      <point x="304" y="558"/>
      <point x="318" y="541"/>
      <point x="332" y="521" type="curve" smooth="yes"/>
      <point x="344" y="499"/>
      <point x="354" y="475"/>
      <point x="362" y="449" type="curve"/>
      <point x="345" y="463"/>
      <point x="327" y="472"/>
      <point x="308" y="478" type="curve" smooth="yes"/>
      <point x="288" y="483"/>
      <point x="268" y="486"/>
      <point x="248" y="486" type="curve" smooth="yes"/>
      <point x="216" y="486"/>
      <point x="187" y="479"/>
      <point x="161" y="467" type="curve" smooth="yes"/>
      <point x="135" y="453"/>
      <point x="113" y="435"/>
      <point x="96" y="413" type="curve" smooth="yes"/>
      <point x="78" y="391"/>
      <point x="64" y="365"/>
      <point x="55" y="335" type="curve" smooth="yes"/>
      <point x="45" y="304"/>
      <point x="41" y="272"/>
      <point x="41" y="238" type="curve" smooth="yes"/>
      <point x="41" y="158"/>
      <point x="60" y="97"/>
      <point x="98" y="57" type="curve" smooth="yes"/>
      <point x="136" y="15"/>
      <point x="186" y="-5"/>
      <point x="250" y="-5" type="curve" smooth="yes"/>
      <point x="313" y="-5"/>
      <point x="364" y="16"/>
      <point x="402" y="60" type="curve" smooth="yes"/>
      <point x="440" y="103"/>
      <point x="459" y="163"/>
      <point x="459" y="239" type="curve" smooth="yes"/>
      <point x="459" y="240" type="line" smooth="yes"/>
      <point x="459" y="324"/>
      <point x="449" y="397"/>
      <point x="430" y="459" type="curve" smooth="yes"/>
      <point x="410" y="520"/>
      <point x="383" y="570"/>
      <point x="348" y="609" type="curve"/>
      <point x="437" y="668" type="line"/>
      <point x="412" y="713" type="line"/>
    </contour>
    <contour>
      <point x="113" y="238" type="curve" smooth="yes"/>
      <point x="113" y="291"/>
      <point x="123" y="336"/>
      <point x="145" y="373" type="curve" smooth="yes"/>
      <point x="165" y="409"/>
      <point x="199" y="427"/>
      <point x="247" y="427" type="curve" smooth="yes"/>
      <point x="271" y="427"/>
      <point x="291" y="422"/>
      <point x="309" y="412" type="curve" smooth="yes"/>
      <point x="326" y="401"/>
      <point x="340" y="387"/>
      <point x="351" y="370" type="curve" smooth="yes"/>
      <point x="363" y="352"/>
      <point x="372" y="332"/>
      <point x="378" y="310" type="curve" smooth="yes"/>
      <point x="383" y="287"/>
      <point x="386" y="263"/>
      <point x="386" y="239" type="curve" smooth="yes"/>
      <point x="386" y="213"/>
      <point x="383" y="189"/>
      <point x="378" y="167" type="curve" smooth="yes"/>
      <point x="372" y="144"/>
      <point x="363" y="124"/>
      <point x="352" y="108" type="curve" smooth="yes"/>
      <point x="340" y="91"/>
      <point x="326" y="78"/>
      <point x="310" y="69" type="curve" smooth="yes"/>
      <point x="293" y="59"/>
      <point x="273" y="54"/>
      <point x="251" y="54" type="curve" smooth="yes"/>
      <point x="205" y="54"/>
      <point x="170" y="72"/>
      <point x="148" y="108" type="curve" smooth="yes"/>
      <point x="124" y="143"/>
      <point x="113" y="186"/>
    </contour>
  </outline>
</glyph>
<glyph name="divide" format="2">
  <advance width="590"/>
  <unicode hex="00F7"/>
  <outline>
    <contour>
      <point x="357" y="572" type="curve" smooth="yes"/>
      <point x="357" y="589"/>
      <point x="351" y="604"/>
      <point x="339" y="617" type="curve" smooth="yes"/>
      <point x="326" y="629"/>
      <point x="311" y="635"/>
      <point x="294" y="635" type="curve" smooth="yes"/>
      <point x="276" y="635"/>
      <point x="262" y="629"/>
      <point x="250" y="617" type="curve" smooth="yes"/>
      <point x="237" y="604"/>
      <point x="231" y="589"/>
      <point x="231" y="572" type="curve" smooth="yes"/>
      <point x="231" y="554"/>
      <point x="237" y="540"/>
      <point x="250" y="528" type="curve" smooth="yes"/>
      <point x="262" y="515"/>
      <point x="276" y="509"/>
      <point x="294" y="509" type="curve" smooth="yes"/>
      <point x="311" y="509"/>
      <point x="326" y="515"/>
      <point x="339" y="528" type="curve" smooth="yes"/>
      <point x="351" y="540"/>
      <point x="357" y="554"/>
    </contour>
    <contour>
      <point x="549" y="376" type="line"/>
      <point x="39" y="376" type="line"/>
      <point x="39" y="308" type="line"/>
      <point x="549" y="308" type="line"/>
    </contour>
    <contour>
      <point x="357" y="111" type="curve" smooth="yes"/>
      <point x="357" y="128"/>
      <point x="351" y="143"/>
      <point x="339" y="156" type="curve" smooth="yes"/>
      <point x="326" y="168"/>
      <point x="311" y="174"/>
      <point x="294" y="174" type="curve" smooth="yes"/>
      <point x="276" y="174"/>
      <point x="262" y="168"/>
      <point x="250" y="156" type="curve" smooth="yes"/>
      <point x="237" y="143"/>
      <point x="231" y="128"/>
      <point x="231" y="111" type="curve" smooth="yes"/>
      <point x="231" y="93"/>
      <point x="237" y="79"/>
      <point x="250" y="67" type="curve" smooth="yes"/>
      <point x="262" y="54"/>
      <point x="276" y="48"/>
      <point x="294" y="48" type="curve" smooth="yes"/>
      <point x="311" y="48"/>
      <point x="326" y="54"/>
      <point x="339" y="67" type="curve" smooth="yes"/>
      <point x="351" y="79"/>
      <point x="357" y="93"/>
    </contour>
  </outline>
</glyph>
<glyph name="Hbar" format="2">
  <advance width="653"/>
  <unicode hex="0126"/>
  <outline>
    <contour>
      <point x="121" y="498" type="line"/>
      <point x="121" y="6" type="line"/>
      <point x="192" y="6" type="line"/>
      <point x="192" y="334" type="line"/>
      <point x="476" y="334" type="line"/>
      <point x="476" y="6" type="line"/>
      <point x="547" y="6" type="line"/>
      <point x="547" y="498" type="line"/>
      <point x="635" y="498" type="line"/>
      <point x="635" y="554" type="line"/>
      <point x="547" y="554" type="line"/>
      <point x="547" y="707" type="line"/>
      <point x="476" y="707" type="line"/>
      <point x="476" y="554" type="line"/>
      <point x="192" y="554" type="line"/>
      <point x="192" y="707" type="line"/>
      <point x="121" y="707" type="line"/>
      <point x="121" y="554" type="line"/>
      <point x="19" y="554" type="line"/>
      <point x="19" y="498" type="line"/>
    </contour>
    <contour>
      <point x="192" y="400" type="line"/>
      <point x="192" y="498" type="line"/>
      <point x="476" y="498" type="line"/>
      <point x="476" y="400" type="line"/>
    </contour>
  </outline>
</glyph>
<glyph name="Ldot" format="2">
  <advance width="512"/>
  <unicode hex="013F"/>
  <outline>
    <contour>
      <point x="99" y="6" type="line"/>
      <point x="455" y="6" type="line"/>
      <point x="455" y="73" type="line"/>
      <point x="169" y="73" type="line"/>
      <point x="169" y="707" type="line"/>
      <point x="99" y="707" type="line"/>
    </contour>
    <contour>
      <point x="301" y="416" type="line"/>
      <point x="301" y="316" type="line"/>
      <point x="389" y="316" type="line"/>
      <point x="389" y="416" type="line"/>
    </contour>
  </outline>
</glyph>
<glyph name="ldot" format="2">
  <advance width="366"/>
  <unicode hex="0140"/>
  <outline>
    <contour>
      <point x="90" y="6" type="line"/>
      <point x="157" y="6" type="line"/>
      <point x="157" y="707" type="line"/>
      <point x="90" y="707" type="line"/>
    </contour>
    <contour>
      <point x="225" y="442" type="line"/>
      <point x="225" y="342" type="line"/>
      <point x="313" y="342" type="line"/>
      <point x="313" y="442" type="line"/>
    </contour>
  </outline>
</glyph>
<glyph name="napostrophe" format="2">
  <advance width="661"/>
  <unicode hex="0149"/>
  <outline>
    <contour>
      <point x="229" y="6" type="line"/>
      <point x="291" y="6" type="line"/>
      <point x="291" y="210" type="line" smooth="yes"/>
      <point x="291" y="221"/>
      <point x="291" y="233"/>
      <point x="293" y="245" type="curve" smooth="yes"/>
      <point x="293" y="256"/>
      <point x="295" y="268"/>
      <point x="298" y="282" type="curve" smooth="yes"/>
      <point x="308" y="328"/>
      <point x="325" y="367"/>
      <point x="350" y="397" type="curve" smooth="yes"/>
      <point x="374" y="427"/>
      <point x="400" y="441"/>
      <point x="430" y="439" type="curve" smooth="yes"/>
      <point x="452" y="437"/>
      <point x="469" y="431"/>
      <point x="481" y="421" type="curve" smooth="yes"/>
      <point x="492" y="411"/>
      <point x="500" y="398"/>
      <point x="506" y="383" type="curve" smooth="yes"/>
      <point x="511" y="367"/>
      <point x="514" y="351"/>
      <point x="516" y="333" type="curve" smooth="yes"/>
      <point x="516" y="314"/>
      <point x="517" y="296"/>
      <point x="517" y="279" type="curve" smooth="yes"/>
      <point x="517" y="6" type="line"/>
      <point x="578" y="6" type="line"/>
      <point x="578" y="357" type="line" smooth="yes"/>
      <point x="576" y="407"/>
      <point x="564" y="445"/>
      <point x="540" y="471" type="curve" smooth="yes"/>
      <point x="515" y="496"/>
      <point x="483" y="509"/>
      <point x="445" y="509" type="curve" smooth="yes"/>
      <point x="419" y="509"/>
      <point x="397" y="504"/>
      <point x="379" y="494" type="curve" smooth="yes"/>
      <point x="361" y="484"/>
      <point x="346" y="472"/>
      <point x="334" y="459" type="curve" smooth="yes"/>
      <point x="322" y="445"/>
      <point x="312" y="432"/>
      <point x="306" y="418" type="curve" smooth="yes"/>
      <point x="299" y="404"/>
      <point x="294" y="392"/>
      <point x="292" y="384" type="curve"/>
      <point x="291" y="384" type="line"/>
      <point x="291" y="498" type="line"/>
      <point x="229" y="498" type="line"/>
    </contour>
    <contour>
      <point x="157" y="786" type="line"/>
      <point x="62" y="786" type="line"/>
      <point x="62" y="681" type="line"/>
      <point x="107" y="681" type="line"/>
      <point x="107" y="673"/>
      <point x="106" y="666"/>
      <point x="106" y="659" type="curve" smooth="yes"/>
      <point x="105" y="651"/>
      <point x="103" y="645"/>
      <point x="99" y="639" type="curve" smooth="yes"/>
      <point x="95" y="633"/>
      <point x="89" y="627"/>
      <point x="83" y="623" type="curve" smooth="yes"/>
      <point x="75" y="617"/>
      <point x="67" y="613"/>
      <point x="57" y="609" type="curve"/>
      <point x="88" y="568" type="line"/>
      <point x="99" y="574"/>
      <point x="109" y="582"/>
      <point x="119" y="590" type="curve" smooth="yes"/>
      <point x="127" y="598"/>
      <point x="135" y="607"/>
      <point x="142" y="618" type="curve" smooth="yes"/>
      <point x="147" y="628"/>
      <point x="151" y="641"/>
      <point x="154" y="658" type="curve" smooth="yes"/>
      <point x="156" y="674"/>
      <point x="157" y="689"/>
      <point x="157" y="701" type="curve" smooth="yes"/>
    </contour>
  </outline>
</glyph>
<glyph name="tbar" format="2">
  <advance width="330"/>
  <unicode hex="0167"/>
  <outline>
    <contour>
      <point x="100" y="259" type="line"/>
      <point x="100" y="118" type="line" smooth="yes"/>
      <point x="100" y="76"/>
      <point x="110" y="46"/>
      <point x="132" y="26" type="curve" smooth="yes"/>
      <point x="152" y="5"/>
      <point x="184" y="-5"/>
      <point x="227" y="-5" type="curve" smooth="yes"/>
      <point x="236" y="-5"/>
      <point x="246" y="-5"/>
      <point x="257" y="-5" type="curve" smooth="yes"/>
      <point x="267" y="-4"/>
      <point x="278" y="-3"/>
      <point x="290" y="-1" type="curve"/>
      <point x="290" y="61" type="line"/>
      <point x="283" y="59"/>
      <point x="275" y="57"/>
      <point x="267" y="57" type="curve" smooth="yes"/>
      <point x="258" y="55"/>
      <point x="249" y="55"/>
      <point x="239" y="55" type="curve" smooth="yes"/>
      <point x="222" y="55"/>
      <point x="209" y="58"/>
      <point x="199" y="64" type="curve" smooth="yes"/>
      <point x="189" y="70"/>
      <point x="181" y="78"/>
      <point x="177" y="89" type="curve" smooth="yes"/>
      <point x="171" y="99"/>
      <point x="168" y="112"/>
      <point x="168" y="126" type="curve" smooth="yes"/>
      <point x="166" y="139"/>
      <point x="166" y="153"/>
      <point x="166" y="169" type="curve" smooth="yes"/>
      <point x="166" y="259" type="line"/>
      <point x="293" y="259" type="line"/>
      <point x="293" y="315" type="line"/>
      <point x="166" y="315" type="line"/>
      <point x="166" y="437" type="line"/>
      <point x="292" y="437" type="line"/>
      <point x="292" y="495" type="line"/>
      <point x="166" y="495" type="line"/>
      <point x="166" y="657" type="line"/>
      <point x="100" y="611" type="line"/>
      <point x="100" y="495" type="line"/>
      <point x="23" y="495" type="line"/>
      <point x="23" y="437" type="line"/>
      <point x="100" y="437" type="line"/>
      <point x="100" y="315" type="line"/>
      <point x="24" y="315" type="line"/>
      <point x="24" y="259" type="line"/>
    </contour>
  </outline>
</glyph>
<glyph name="caron" format="2">
  <advance width="838"/>
  <unicode hex="02C7"/>
  <outline>
    <contour>
      <point x="419" y="699" type="line"/>
      <point x="281" y="771" type="line"/>
      <point x="281" y="715" type="line"/>
      <point x="419" y="641" type="line"/>
      <point x="556" y="715" type="line"/>
      <point x="556" y="771" type="line"/>
    </contour>
  </outline>
</glyph>
<glyph name="Alpha" format="2">
  <advance width="559"/>
  <unicode hex="0391"/>
  <outline>
    <contour>
      <point x="17" y="6" type="line"/>
      <point x="94" y="6" type="line"/>
      <point x="160" y="226" type="line"/>
      <point x="396" y="226" type="line"/>
      <point x="462" y="6" type="line"/>
      <point x="539" y="6" type="line"/>
      <point x="320" y="707" type="line"/>
      <point x="236" y="707" type="line"/>
    </contour>
    <contour>
      <point x="278" y="625" type="line"/>
      <point x="377" y="292" type="line"/>
      <point x="179" y="292" type="line"/>
    </contour>
  </outline>
</glyph>
<glyph name="Gamma" format="2">
  <advance width="449"/>
  <unicode hex="0393"/>
  <outline>
    <contour>
      <point x="84" y="6" type="line"/>
      <point x="154" y="6" type="line"/>
      <point x="154" y="640" type="line"/>
      <point x="422" y="640" type="line"/>
      <point x="422" y="707" type="line"/>
      <point x="84" y="707" type="line"/>
    </contour>
  </outline>
</glyph>
<glyph name="Xi" format="2">
  <advance width="499"/>
  <unicode hex="039E"/>
  <outline>
    <contour>
      <point x="448" y="6" type="line"/>
      <point x="448" y="73" type="line"/>
      <point x="42" y="73" type="line"/>
      <point x="42" y="6" type="line"/>
    </contour>
    <contour>
      <point x="50" y="707" type="line"/>
      <point x="50" y="640" type="line"/>
      <point x="440" y="640" type="line"/>
      <point x="440" y="707" type="line"/>
    </contour>
    <contour>
      <point x="430" y="340" type="line"/>
      <point x="430" y="406" type="line"/>
      <point x="61" y="406" type="line"/>
      <point x="61" y="340" type="line"/>
    </contour>
  </outline>
</glyph>
<glyph name="Omicron" format="2">
  <advance width="660"/>
  <unicode hex="039F"/>
  <outline>
    <contour>
      <point x="325" y="-5" type="curve" smooth="yes"/>
      <point x="373" y="-5"/>
      <point x="415" y="5"/>
      <point x="451" y="25" type="curve" smooth="yes"/>
      <point x="486" y="45"/>
      <point x="515" y="72"/>
      <point x="539" y="106" type="curve" smooth="yes"/>
      <point x="561" y="140"/>
      <point x="578" y="178"/>
      <point x="590" y="222" type="curve" smooth="yes"/>
      <point x="600" y="264"/>
      <point x="606" y="310"/>
      <point x="606" y="359" type="curve" smooth="yes"/>
      <point x="606" y="409"/>
      <point x="600" y="455"/>
      <point x="588" y="499" type="curve" smooth="yes"/>
      <point x="575" y="542"/>
      <point x="557" y="580"/>
      <point x="534" y="613" type="curve" smooth="yes"/>
      <point x="510" y="646"/>
      <point x="481" y="672"/>
      <point x="447" y="692" type="curve" smooth="yes"/>
      <point x="411" y="710"/>
      <point x="371" y="720"/>
      <point x="325" y="720" type="curve" smooth="yes"/>
      <point x="279" y="720"/>
      <point x="238" y="710"/>
      <point x="204" y="690" type="curve" smooth="yes"/>
      <point x="168" y="669"/>
      <point x="139" y="642"/>
      <point x="115" y="609" type="curve" smooth="yes"/>
      <point x="91" y="575"/>
      <point x="74" y="537"/>
      <point x="62" y="495" type="curve" smooth="yes"/>
      <point x="50" y="451"/>
      <point x="44" y="406"/>
      <point x="44" y="358" type="curve" smooth="yes"/>
      <point x="44" y="306"/>
      <point x="50" y="259"/>
      <point x="62" y="216" type="curve" smooth="yes"/>
      <point x="74" y="172"/>
      <point x="91" y="134"/>
      <point x="115" y="102" type="curve" smooth="yes"/>
      <point x="139" y="68"/>
      <point x="168" y="42"/>
      <point x="204" y="24" type="curve" smooth="yes"/>
      <point x="238" y="4"/>
      <point x="279" y="-5"/>
    </contour>
    <contour>
      <point x="118" y="359" type="curve" smooth="yes"/>
      <point x="118" y="401"/>
      <point x="123" y="441"/>
      <point x="133" y="477" type="curve" smooth="yes"/>
      <point x="142" y="512"/>
      <point x="156" y="543"/>
      <point x="174" y="570" type="curve" smooth="yes"/>
      <point x="192" y="596"/>
      <point x="213" y="617"/>
      <point x="239" y="633" type="curve" smooth="yes"/>
      <point x="264" y="648"/>
      <point x="292" y="656"/>
      <point x="324" y="657" type="curve" smooth="yes"/>
      <point x="358" y="657"/>
      <point x="389" y="649"/>
      <point x="415" y="633" type="curve" smooth="yes"/>
      <point x="440" y="617"/>
      <point x="461" y="595"/>
      <point x="479" y="568" type="curve" smooth="yes"/>
      <point x="496" y="540"/>
      <point x="509" y="509"/>
      <point x="518" y="474" type="curve" smooth="yes"/>
      <point x="526" y="438"/>
      <point x="531" y="400"/>
      <point x="531" y="360" type="curve" smooth="yes"/>
      <point x="531" y="316"/>
      <point x="526" y="277"/>
      <point x="518" y="241" type="curve" smooth="yes"/>
      <point x="509" y="205"/>
      <point x="496" y="173"/>
      <point x="480" y="146" type="curve" smooth="yes"/>
      <point x="462" y="118"/>
      <point x="441" y="97"/>
      <point x="416" y="82" type="curve" smooth="yes"/>
      <point x="390" y="66"/>
      <point x="359" y="58"/>
      <point x="325" y="58" type="curve" smooth="yes"/>
      <point x="290" y="58"/>
      <point x="260" y="66"/>
      <point x="234" y="83" type="curve" smooth="yes"/>
      <point x="208" y="99"/>
      <point x="186" y="122"/>
      <point x="170" y="150" type="curve" smooth="yes"/>
      <point x="152" y="178"/>
      <point x="139" y="210"/>
      <point x="131" y="246" type="curve" smooth="yes"/>
      <point x="122" y="281"/>
      <point x="118" y="319"/>
    </contour>
  </outline>
</glyph>
<glyph name="Tau" format="2">
  <advance width="492"/>
  <unicode hex="03A4"/>
  <outline>
    <contour>
      <point x="212" y="6" type="line"/>
      <point x="282" y="6" type="line"/>
      <point x="282" y="640" type="line"/>
      <point x="468" y="640" type="line"/>
      <point x="468" y="707" type="line"/>
      <point x="26" y="707" type="line"/>
      <point x="26" y="640" type="line"/>
      <point x="212" y="640" type="line"/>
    </contour>
  </outline>
</glyph>
<glyph name="Psi" format="2">
  <advance width="611"/>
  <unicode hex="03A8"/>
  <outline>
    <contour>
      <point x="533" y="707" type="line"/>
      <point x="461" y="707" type="line"/>
      <point x="461" y="470" type="line" smooth="yes"/>
      <point x="461" y="446"/>
      <point x="458" y="424"/>
      <point x="454" y="402" type="curve" smooth="yes"/>
      <point x="448" y="380"/>
      <point x="441" y="360"/>
      <point x="432" y="342" type="curve" smooth="yes"/>
      <point x="422" y="323"/>
      <point x="409" y="307"/>
      <point x="394" y="294" type="curve" smooth="yes"/>
      <point x="378" y="280"/>
      <point x="360" y="271"/>
      <point x="340" y="266" type="curve"/>
      <point x="340" y="707" type="line"/>
      <point x="267" y="707" type="line"/>
      <point x="267" y="265" type="line"/>
      <point x="243" y="269"/>
      <point x="224" y="277"/>
      <point x="208" y="291" type="curve" smooth="yes"/>
      <point x="192" y="304"/>
      <point x="179" y="320"/>
      <point x="169" y="339" type="curve" smooth="yes"/>
      <point x="159" y="357"/>
      <point x="152" y="378"/>
      <point x="148" y="401" type="curve" smooth="yes"/>
      <point x="143" y="423"/>
      <point x="141" y="446"/>
      <point x="141" y="470" type="curve" smooth="yes"/>
      <point x="141" y="707" type="line"/>
      <point x="69" y="707" type="line"/>
      <point x="69" y="468" type="line" smooth="yes"/>
      <point x="69" y="440"/>
      <point x="72" y="411"/>
      <point x="78" y="381" type="curve" smooth="yes"/>
      <point x="83" y="351"/>
      <point x="93" y="323"/>
      <point x="109" y="297" type="curve" smooth="yes"/>
      <point x="124" y="271"/>
      <point x="145" y="249"/>
      <point x="171" y="231" type="curve" smooth="yes"/>
      <point x="196" y="212"/>
      <point x="228" y="201"/>
      <point x="267" y="197" type="curve"/>
      <point x="267" y="6" type="line"/>
      <point x="340" y="6" type="line"/>
      <point x="340" y="198" type="line"/>
      <point x="376" y="203"/>
      <point x="406" y="215"/>
      <point x="431" y="235" type="curve" smooth="yes"/>
      <point x="455" y="253"/>
      <point x="475" y="276"/>
      <point x="491" y="302" type="curve" smooth="yes"/>
      <point x="505" y="328"/>
      <point x="516" y="355"/>
      <point x="523" y="385" type="curve" smooth="yes"/>
      <point x="529" y="414"/>
      <point x="533" y="442"/>
      <point x="533" y="468" type="curve" smooth="yes"/>
    </contour>
  </outline>
</glyph>
<glyph name="delta" format="2">
  <advance width="479"/>
  <unicode hex="03B4"/>
  <outline>
    <contour>
      <point x="235" y="-5" type="curve" smooth="yes"/>
      <point x="297" y="-5"/>
      <point x="347" y="16"/>
      <point x="387" y="60" type="curve" smooth="yes"/>
      <point x="425" y="103"/>
      <point x="445" y="163"/>
      <point x="445" y="239" type="curve" smooth="yes"/>
      <point x="445" y="279"/>
      <point x="439" y="315"/>
      <point x="428" y="347" type="curve" smooth="yes"/>
      <point x="416" y="378"/>
      <point x="400" y="405"/>
      <point x="380" y="427" type="curve" smooth="yes"/>
      <point x="203" y="640" type="line"/>
      <point x="411" y="640" type="line"/>
      <point x="411" y="707" type="line"/>
      <point x="110" y="707" type="line"/>
      <point x="110" y="640" type="line"/>
      <point x="243" y="486" type="line"/>
      <point x="209" y="486"/>
      <point x="178" y="479"/>
      <point x="150" y="467" type="curve" smooth="yes"/>
      <point x="122" y="453"/>
      <point x="99" y="435"/>
      <point x="82" y="413" type="curve" smooth="yes"/>
      <point x="64" y="391"/>
      <point x="50" y="365"/>
      <point x="41" y="335" type="curve" smooth="yes"/>
      <point x="31" y="304"/>
      <point x="26" y="272"/>
      <point x="26" y="238" type="curve" smooth="yes"/>
      <point x="26" y="158"/>
      <point x="45" y="97"/>
      <point x="84" y="57" type="curve" smooth="yes"/>
      <point x="122" y="15"/>
      <point x="172" y="-5"/>
    </contour>
    <contour>
      <point x="98" y="238" type="curve" smooth="yes"/>
      <point x="98" y="291"/>
      <point x="109" y="336"/>
      <point x="132" y="373" type="curve" smooth="yes"/>
      <point x="154" y="409"/>
      <point x="188" y="427"/>
      <point x="232" y="427" type="curve" smooth="yes"/>
      <point x="254" y="427"/>
      <point x="273" y="422"/>
      <point x="291" y="412" type="curve" smooth="yes"/>
      <point x="308" y="401"/>
      <point x="323" y="387"/>
      <point x="335" y="370" type="curve" smooth="yes"/>
      <point x="346" y="352"/>
      <point x="355" y="332"/>
      <point x="362" y="310" type="curve" smooth="yes"/>
      <point x="368" y="287"/>
      <point x="371" y="263"/>
      <point x="371" y="239" type="curve" smooth="yes"/>
      <point x="371" y="213"/>
      <point x="368" y="189"/>
      <point x="362" y="167" type="curve" smooth="yes"/>
      <point x="355" y="144"/>
      <point x="346" y="124"/>
      <point x="335" y="108" type="curve" smooth="yes"/>
      <point x="323" y="91"/>
      <point x="309" y="78"/>
      <point x="293" y="69" type="curve" smooth="yes"/>
      <point x="276" y="59"/>
      <point x="257" y="54"/>
      <point x="236" y="54" type="curve" smooth="yes"/>
      <point x="214" y="54"/>
      <point x="194" y="58"/>
      <point x="178" y="68" type="curve" smooth="yes"/>
      <point x="160" y="77"/>
      <point x="146" y="90"/>
      <point x="134" y="107" type="curve" smooth="yes"/>
      <point x="122" y="123"/>
      <point x="113" y="143"/>
      <point x="107" y="166" type="curve" smooth="yes"/>
      <point x="101" y="188"/>
      <point x="98" y="212"/>
    </contour>
  </outline>
</glyph>
<glyph name="eta" format="2">
  <advance width="497"/>
  <unicode hex="03B7"/>
  <outline>
    <contour>
      <point x="71" y="6" type="line"/>
      <point x="132" y="6" type="line"/>
      <point x="132" y="211" type="line" smooth="yes"/>
      <point x="132" y="222"/>
      <point x="132" y="234"/>
      <point x="134" y="246" type="curve" smooth="yes"/>
      <point x="135" y="257"/>
      <point x="137" y="269"/>
      <point x="139" y="283" type="curve" smooth="yes"/>
      <point x="149" y="329"/>
      <point x="167" y="368"/>
      <point x="191" y="398" type="curve" smooth="yes"/>
      <point x="215" y="428"/>
      <point x="241" y="442"/>
      <point x="271" y="440" type="curve" smooth="yes"/>
      <point x="293" y="438"/>
      <point x="311" y="432"/>
      <point x="323" y="422" type="curve" smooth="yes"/>
      <point x="334" y="412"/>
      <point x="342" y="399"/>
      <point x="348" y="384" type="curve" smooth="yes"/>
      <point x="353" y="368"/>
      <point x="356" y="352"/>
      <point x="357" y="334" type="curve" smooth="yes"/>
      <point x="357" y="315"/>
      <point x="358" y="297"/>
      <point x="358" y="280" type="curve" smooth="yes"/>
      <point x="358" y="-160" type="line"/>
      <point x="420" y="-160" type="line"/>
      <point x="420" y="358" type="line" smooth="yes"/>
      <point x="418" y="408"/>
      <point x="405" y="446"/>
      <point x="381" y="472" type="curve" smooth="yes"/>
      <point x="356" y="497"/>
      <point x="324" y="510"/>
      <point x="286" y="510" type="curve" smooth="yes"/>
      <point x="260" y="510"/>
      <point x="238" y="505"/>
      <point x="221" y="495" type="curve" smooth="yes"/>
      <point x="203" y="485"/>
      <point x="187" y="473"/>
      <point x="175" y="460" type="curve" smooth="yes"/>
      <point x="163" y="446"/>
      <point x="154" y="433"/>
      <point x="147" y="419" type="curve" smooth="yes"/>
      <point x="139" y="405"/>
      <point x="134" y="393"/>
      <point x="132" y="385" type="curve"/>
      <point x="132" y="498" type="line"/>
      <point x="71" y="498" type="line"/>
    </contour>
  </outline>
</glyph>
<glyph name="tau" format="2">
  <advance width="412"/>
  <unicode hex="03C4"/>
  <outline>
    <contour>
      <point x="174" y="6" type="line"/>
      <point x="240" y="6" type="line"/>
      <point x="240" y="439" type="line"/>
      <point x="394" y="439" type="line"/>
      <point x="394" y="498" type="line"/>
      <point x="19" y="498" type="line"/>
      <point x="19" y="439" type="line"/>
      <point x="174" y="439" type="line"/>
    </contour>
  </outline>
</glyph>
<glyph name="upsilon" format="2">
  <advance width="494"/>
  <unicode hex="03C5"/>
  <outline>
    <contour>
      <point x="64" y="177" type="line" smooth="yes"/>
      <point x="64" y="126"/>
      <point x="78" y="83"/>
      <point x="106" y="48" type="curve" smooth="yes"/>
      <point x="133" y="12"/>
      <point x="178" y="-5"/>
      <point x="240" y="-5" type="curve" smooth="yes"/>
      <point x="274" y="-5"/>
      <point x="303" y="1"/>
      <point x="328" y="13" type="curve" smooth="yes"/>
      <point x="352" y="25"/>
      <point x="371" y="41"/>
      <point x="387" y="62" type="curve" smooth="yes"/>
      <point x="402" y="82"/>
      <point x="414" y="105"/>
      <point x="422" y="132" type="curve" smooth="yes"/>
      <point x="429" y="158"/>
      <point x="433" y="184"/>
      <point x="435" y="212" type="curve" smooth="yes"/>
      <point x="439" y="272"/>
      <point x="433" y="327"/>
      <point x="419" y="377" type="curve" smooth="yes"/>
      <point x="404" y="426"/>
      <point x="388" y="470"/>
      <point x="370" y="509" type="curve"/>
      <point x="313" y="487" type="line"/>
      <point x="323" y="465"/>
      <point x="333" y="441"/>
      <point x="341" y="417" type="curve" smooth="yes"/>
      <point x="349" y="391"/>
      <point x="355" y="366"/>
      <point x="361" y="340" type="curve" smooth="yes"/>
      <point x="366" y="314"/>
      <point x="370" y="288"/>
      <point x="372" y="263" type="curve" smooth="yes"/>
      <point x="373" y="237"/>
      <point x="372" y="214"/>
      <point x="369" y="193" type="curve" smooth="yes"/>
      <point x="363" y="152"/>
      <point x="349" y="119"/>
      <point x="325" y="95" type="curve" smooth="yes"/>
      <point x="301" y="70"/>
      <point x="272" y="58"/>
      <point x="238" y="58" type="curve" smooth="yes"/>
      <point x="209" y="58"/>
      <point x="184" y="68"/>
      <point x="162" y="90" type="curve" smooth="yes"/>
      <point x="139" y="111"/>
      <point x="128" y="141"/>
      <point x="128" y="179" type="curve" smooth="yes"/>
      <point x="128" y="498" type="line"/>
      <point x="64" y="498" type="line"/>
    </contour>
  </outline>
</glyph>
<glyph name="phi" format="2">
  <advance width="524"/>
  <unicode hex="03C6"/>
  <outline>
    <contour>
      <point x="284" y="-4" type="line"/>
      <point x="342" y="2"/>
      <point x="388" y="26"/>
      <point x="423" y="68" type="curve" smooth="yes"/>
      <point x="457" y="110"/>
      <point x="474" y="171"/>
      <point x="474" y="252" type="curve" smooth="yes"/>
      <point x="474" y="337"/>
      <point x="461" y="399"/>
      <point x="437" y="439" type="curve" smooth="yes"/>
      <point x="412" y="478"/>
      <point x="378" y="498"/>
      <point x="336" y="498" type="curve" smooth="yes"/>
      <point x="318" y="498"/>
      <point x="302" y="494"/>
      <point x="288" y="488" type="curve" smooth="yes"/>
      <point x="272" y="481"/>
      <point x="259" y="469"/>
      <point x="249" y="451" type="curve" smooth="yes"/>
      <point x="237" y="433"/>
      <point x="229" y="408"/>
      <point x="224" y="376" type="curve" smooth="yes"/>
      <point x="218" y="343"/>
      <point x="215" y="301"/>
      <point x="215" y="251" type="curve" smooth="yes"/>
      <point x="215" y="56" type="line"/>
      <point x="181" y="62"/>
      <point x="156" y="82"/>
      <point x="139" y="114" type="curve" smooth="yes"/>
      <point x="121" y="145"/>
      <point x="113" y="191"/>
      <point x="113" y="251" type="curve" smooth="yes"/>
      <point x="113" y="304"/>
      <point x="121" y="343"/>
      <point x="137" y="369" type="curve" smooth="yes"/>
      <point x="153" y="394"/>
      <point x="170" y="410"/>
      <point x="188" y="418" type="curve"/>
      <point x="188" y="493" type="line"/>
      <point x="168" y="486"/>
      <point x="149" y="476"/>
      <point x="131" y="462" type="curve" smooth="yes"/>
      <point x="113" y="448"/>
      <point x="97" y="430"/>
      <point x="84" y="410" type="curve" smooth="yes"/>
      <point x="70" y="389"/>
      <point x="59" y="365"/>
      <point x="52" y="339" type="curve" smooth="yes"/>
      <point x="44" y="311"/>
      <point x="41" y="282"/>
      <point x="41" y="251" type="curve" smooth="yes"/>
      <point x="41" y="171"/>
      <point x="57" y="111"/>
      <point x="89" y="70" type="curve" smooth="yes"/>
      <point x="120" y="28"/>
      <point x="162" y="3"/>
      <point x="215" y="-3" type="curve"/>
      <point x="215" y="-160" type="line"/>
      <point x="284" y="-160" type="line"/>
    </contour>
    <contour>
      <point x="400" y="252" type="curve" smooth="yes"/>
      <point x="400" y="190"/>
      <point x="389" y="144"/>
      <point x="368" y="113" type="curve" smooth="yes"/>
      <point x="346" y="81"/>
      <point x="318" y="62"/>
      <point x="284" y="56" type="curve"/>
      <point x="284" y="251" type="line" smooth="yes"/>
      <point x="284" y="307"/>
      <point x="287" y="351"/>
      <point x="295" y="384" type="curve" smooth="yes"/>
      <point x="301" y="416"/>
      <point x="315" y="433"/>
      <point x="335" y="433" type="curve" smooth="yes"/>
      <point x="354" y="433"/>
      <point x="370" y="419"/>
      <point x="382" y="392" type="curve" smooth="yes"/>
      <point x="394" y="364"/>
      <point x="400" y="318"/>
    </contour>
  </outline>
</glyph>
<glyph name="uni0401" format="2">
  <advance width="480"/>
  <unicode hex="0401"/>
  <outline>
    <contour>
      <point x="84" y="6" type="line"/>
      <point x="429" y="6" type="line"/>
      <point x="429" y="73" type="line"/>
      <point x="154" y="73" type="line"/>
      <point x="154" y="341" type="line"/>
      <point x="410" y="341" type="line"/>
      <point x="410" y="407" type="line"/>
      <point x="154" y="407" type="line"/>
      <point x="154" y="640" type="line"/>
      <point x="421" y="640" type="line"/>
      <point x="421" y="707" type="line"/>
      <point x="84" y="707" type="line"/>
    </contour>
    <contour>
      <point x="130" y="816" type="line"/>
      <point x="130" y="737" type="line"/>
      <point x="210" y="737" type="line"/>
      <point x="210" y="816" type="line"/>
    </contour>
    <contour>
      <point x="308" y="816" type="line"/>
      <point x="308" y="737" type="line"/>
      <point x="388" y="737" type="line"/>
      <point x="388" y="816" type="line"/>
    </contour>
  </outline>
</glyph>
<glyph name="uni0412" format="2">
  <advance width="537"/>
  <unicode hex="0412"/>
  <outline>
    <contour>
      <point x="83" y="6" type="line"/>
      <point x="273" y="6" type="line" smooth="yes"/>
      <point x="285" y="6"/>
      <point x="298" y="6"/>
      <point x="314" y="8" type="curve" smooth="yes"/>
      <point x="329" y="9"/>
      <point x="343" y="11"/>
      <point x="356" y="15" type="curve" smooth="yes"/>
      <point x="394" y="26"/>
      <point x="427" y="47"/>
      <point x="453" y="77" type="curve" smooth="yes"/>
      <point x="478" y="107"/>
      <point x="491" y="148"/>
      <point x="491" y="202" type="curve" smooth="yes"/>
      <point x="491" y="236"/>
      <point x="485" y="263"/>
      <point x="475" y="285" type="curve" smooth="yes"/>
      <point x="464" y="305"/>
      <point x="451" y="322"/>
      <point x="437" y="335" type="curve" smooth="yes"/>
      <point x="422" y="347"/>
      <point x="408" y="357"/>
      <point x="394" y="364" type="curve" smooth="yes"/>
      <point x="379" y="370"/>
      <point x="366" y="373"/>
      <point x="354" y="375" type="curve"/>
      <point x="364" y="377"/>
      <point x="378" y="383"/>
      <point x="395" y="395" type="curve" smooth="yes"/>
      <point x="411" y="405"/>
      <point x="424" y="419"/>
      <point x="436" y="435" type="curve" smooth="yes"/>
      <point x="444" y="447"/>
      <point x="451" y="461"/>
      <point x="457" y="478" type="curve" smooth="yes"/>
      <point x="462" y="494"/>
      <point x="465" y="513"/>
      <point x="465" y="534" type="curve" smooth="yes"/>
      <point x="465" y="565"/>
      <point x="459" y="592"/>
      <point x="448" y="614" type="curve" smooth="yes"/>
      <point x="436" y="636"/>
      <point x="420" y="654"/>
      <point x="402" y="668" type="curve" smooth="yes"/>
      <point x="384" y="681"/>
      <point x="364" y="691"/>
      <point x="342" y="698" type="curve" smooth="yes"/>
      <point x="319" y="704"/>
      <point x="296" y="707"/>
      <point x="273" y="707" type="curve" smooth="yes"/>
      <point x="83" y="707" type="line"/>
    </contour>
    <contour>
      <point x="153" y="642" type="line"/>
      <point x="249" y="642" type="line" smooth="yes"/>
      <point x="255" y="642"/>
      <point x="263" y="641"/>
      <point x="273" y="641" type="curve" smooth="yes"/>
      <point x="282" y="640"/>
      <point x="290" y="639"/>
      <point x="298" y="639" type="curve" smooth="yes"/>
      <point x="324" y="634"/>
      <point x="346" y="624"/>
      <point x="366" y="608" type="curve" smooth="yes"/>
      <point x="385" y="591"/>
      <point x="395" y="565"/>
      <point x="395" y="529" type="curve" smooth="yes"/>
      <point x="395" y="509"/>
      <point x="391" y="491"/>
      <point x="384" y="475" type="curve" smooth="yes"/>
      <point x="376" y="458"/>
      <point x="367" y="445"/>
      <point x="357" y="435" type="curve" smooth="yes"/>
      <point x="345" y="425"/>
      <point x="333" y="418"/>
      <point x="321" y="414" type="curve" smooth="yes"/>
      <point x="307" y="409"/>
      <point x="295" y="406"/>
      <point x="285" y="406" type="curve" smooth="yes"/>
      <point x="277" y="404"/>
      <point x="268" y="404"/>
      <point x="260" y="404" type="curve" smooth="yes"/>
      <point x="250" y="404"/>
      <point x="243" y="404"/>
      <point x="239" y="404" type="curve" smooth="yes"/>
      <point x="153" y="404" type="line"/>
    </contour>
    <contour>
      <point x="153" y="340" type="line"/>
      <point x="268" y="340" type="line" smooth="yes"/>
      <point x="276" y="340"/>
      <point x="287" y="339"/>
      <point x="299" y="338" type="curve" smooth="yes"/>
      <point x="311" y="336"/>
      <point x="321" y="333"/>
      <point x="330" y="331" type="curve" smooth="yes"/>
      <point x="360" y="320"/>
      <point x="383" y="304"/>
      <point x="398" y="282" type="curve" smooth="yes"/>
      <point x="412" y="260"/>
      <point x="419" y="234"/>
      <point x="419" y="204" type="curve" smooth="yes"/>
      <point x="417" y="178"/>
      <point x="413" y="157"/>
      <point x="406" y="142" type="curve" smooth="yes"/>
      <point x="398" y="126"/>
      <point x="388" y="114"/>
      <point x="378" y="104" type="curve" smooth="yes"/>
      <point x="366" y="94"/>
      <point x="353" y="86"/>
      <point x="341" y="82" type="curve" smooth="yes"/>
      <point x="327" y="77"/>
      <point x="315" y="74"/>
      <point x="305" y="73" type="curve" smooth="yes"/>
      <point x="296" y="71"/>
      <point x="287" y="71"/>
      <point x="279" y="71" type="curve" smooth="yes"/>
      <point x="270" y="71"/>
      <point x="264" y="71"/>
      <point x="260" y="71" type="curve" smooth="yes"/>
      <point x="153" y="71" type="line"/>
    </contour>
  </outline>
</glyph>
<glyph name="uni0413" format="2">
  <advance width="449"/>
  <unicode hex="0413"/>
  <outline>
    <contour>
      <point x="74" y="6" type="line"/>
      <point x="144" y="6" type="line"/>
      <point x="144" y="640" type="line"/>
      <point x="412" y="640" type="line"/>
      <point x="412" y="707" type="line"/>
      <point x="74" y="707" type="line"/>
    </contour>
  </outline>
</glyph>
<glyph name="uni041C" format="2">
  <advance width="757"/>
  <unicode hex="041C"/>
  <outline>
    <contour>
      <point x="415" y="6" type="line"/>
      <point x="609" y="622" type="line"/>
      <point x="609" y="6" type="line"/>
      <point x="673" y="6" type="line"/>
      <point x="673" y="707" type="line"/>
      <point x="567" y="707" type="line"/>
      <point x="380" y="110" type="line"/>
      <point x="193" y="707" type="line"/>
      <point x="87" y="707" type="line"/>
      <point x="87" y="6" type="line"/>
      <point x="151" y="6" type="line"/>
      <point x="151" y="622" type="line"/>
      <point x="345" y="6" type="line"/>
    </contour>
  </outline>
</glyph>
<glyph name="uni041D" format="2">
  <advance width="598"/>
  <unicode hex="041D"/>
  <outline>
    <contour>
      <point x="86" y="6" type="line"/>
      <point x="157" y="6" type="line"/>
      <point x="157" y="337" type="line"/>
      <point x="441" y="337" type="line"/>
      <point x="441" y="6" type="line"/>
      <point x="513" y="6" type="line"/>
      <point x="513" y="707" type="line"/>
      <point x="441" y="707" type="line"/>
      <point x="441" y="403" type="line"/>
      <point x="157" y="403" type="line"/>
      <point x="157" y="707" type="line"/>
      <point x="86" y="707" type="line"/>
    </contour>
  </outline>
</glyph>
<glyph name="uni0420" format="2">
  <advance width="510"/>
  <unicode hex="0420"/>
  <outline>
    <contour>
      <point x="182" y="294" type="line"/>
      <point x="237" y="294" type="line" smooth="yes"/>
      <point x="263" y="294"/>
      <point x="290" y="297"/>
      <point x="318" y="304" type="curve" smooth="yes"/>
      <point x="344" y="310"/>
      <point x="369" y="322"/>
      <point x="391" y="339" type="curve" smooth="yes"/>
      <point x="412" y="355"/>
      <point x="430" y="376"/>
      <point x="444" y="404" type="curve" smooth="yes"/>
      <point x="457" y="430"/>
      <point x="464" y="464"/>
      <point x="464" y="505" type="curve" smooth="yes"/>
      <point x="464" y="544"/>
      <point x="457" y="577"/>
      <point x="444" y="603" type="curve" smooth="yes"/>
      <point x="430" y="629"/>
      <point x="412" y="649"/>
      <point x="390" y="665" type="curve" smooth="yes"/>
      <point x="368" y="680"/>
      <point x="343" y="691"/>
      <point x="316" y="698" type="curve" smooth="yes"/>
      <point x="288" y="704"/>
      <point x="260" y="707"/>
      <point x="233" y="707" type="curve" smooth="yes"/>
      <point x="73" y="707" type="line"/>
      <point x="73" y="6" type="line"/>
      <point x="141" y="6" type="line"/>
      <point x="141" y="640" type="line"/>
      <point x="232" y="640" type="line" smooth="yes"/>
      <point x="250" y="640"/>
      <point x="269" y="637"/>
      <point x="289" y="633" type="curve" smooth="yes"/>
      <point x="307" y="627"/>
      <point x="324" y="620"/>
      <point x="339" y="610" type="curve" smooth="yes"/>
      <point x="353" y="599"/>
      <point x="366" y="585"/>
      <point x="376" y="568" type="curve" smooth="yes"/>
      <point x="386" y="550"/>
      <point x="391" y="529"/>
      <point x="391" y="505" type="curve" smooth="yes"/>
      <point x="391" y="477"/>
      <point x="386" y="454"/>
      <point x="377" y="436" type="curve" smooth="yes"/>
      <point x="367" y="418"/>
      <point x="355" y="403"/>
      <point x="341" y="392" type="curve" smooth="yes"/>
      <point x="327" y="381"/>
      <point x="311" y="374"/>
      <point x="293" y="370" type="curve" smooth="yes"/>
      <point x="274" y="365"/>
      <point x="255" y="363"/>
      <point x="237" y="363" type="curve" smooth="yes"/>
      <point x="182" y="363" type="line"/>
    </contour>
  </outline>
</glyph>
<glyph name="uni0426" format="2">
  <advance width="618"/>
  <unicode hex="0426"/>
  <outline>
    <contour>
      <point x="499" y="707" type="line"/>
      <point x="427" y="707" type="line"/>
      <point x="427" y="72" type="line"/>
      <point x="143" y="72" type="line"/>
      <point x="143" y="707" type="line"/>
      <point x="72" y="707" type="line"/>
      <point x="72" y="6" type="line"/>
      <point x="499" y="6" type="line"/>
      <point x="499" y="-90" type="line"/>
      <point x="570" y="-90" type="line"/>
      <point x="570" y="72" type="line"/>
      <point x="499" y="72" type="line"/>
    </contour>
  </outline>
</glyph>
<glyph name="uni042F" format="2">
  <advance width="537"/>
  <unicode hex="042F"/>
  <outline>
    <contour>
      <point x="347" y="377" type="line"/>
      <point x="298" y="377" type="line" smooth="yes"/>
      <point x="278" y="377"/>
      <point x="259" y="379"/>
      <point x="241" y="383" type="curve" smooth="yes"/>
      <point x="222" y="386"/>
      <point x="205" y="393"/>
      <point x="191" y="404" type="curve" smooth="yes"/>
      <point x="175" y="414"/>
      <point x="163" y="427"/>
      <point x="155" y="445" type="curve" smooth="yes"/>
      <point x="145" y="461"/>
      <point x="141" y="484"/>
      <point x="141" y="512" type="curve" smooth="yes"/>
      <point x="141" y="536"/>
      <point x="145" y="557"/>
      <point x="153" y="573" type="curve" smooth="yes"/>
      <point x="161" y="589"/>
      <point x="172" y="602"/>
      <point x="186" y="612" type="curve" smooth="yes"/>
      <point x="200" y="622"/>
      <point x="216" y="629"/>
      <point x="234" y="634" type="curve" smooth="yes"/>
      <point x="251" y="638"/>
      <point x="269" y="640"/>
      <point x="289" y="640" type="curve" smooth="yes"/>
      <point x="389" y="640" type="line"/>
      <point x="389" y="377" type="line"/>
    </contour>
    <contour>
      <point x="389" y="308" type="line"/>
      <point x="389" y="6" type="line"/>
      <point x="457" y="6" type="line"/>
      <point x="457" y="707" type="line"/>
      <point x="288" y="707" type="line" smooth="yes"/>
      <point x="260" y="707"/>
      <point x="232" y="704"/>
      <point x="206" y="699" type="curve" smooth="yes"/>
      <point x="179" y="693"/>
      <point x="155" y="682"/>
      <point x="135" y="668" type="curve" smooth="yes"/>
      <point x="114" y="654"/>
      <point x="97" y="634"/>
      <point x="85" y="610" type="curve" smooth="yes"/>
      <point x="72" y="584"/>
      <point x="66" y="552"/>
      <point x="66" y="512" type="curve" smooth="yes"/>
      <point x="66" y="462"/>
      <point x="76" y="423"/>
      <point x="97" y="395" type="curve" smooth="yes"/>
      <point x="117" y="366"/>
      <point x="142" y="345"/>
      <point x="173" y="331" type="curve"/>
      <point x="153" y="318"/>
      <point x="135" y="300"/>
      <point x="120" y="276" type="curve" smooth="yes"/>
      <point x="104" y="251"/>
      <point x="92" y="219"/>
      <point x="85" y="179" type="curve" smooth="yes"/>
      <point x="53" y="6" type="line"/>
      <point x="132" y="6" type="line"/>
      <point x="155" y="147" type="line" smooth="yes"/>
      <point x="161" y="191"/>
      <point x="176" y="229"/>
      <point x="198" y="261" type="curve" smooth="yes"/>
      <point x="220" y="292"/>
      <point x="246" y="308"/>
      <point x="276" y="308" type="curve" smooth="yes"/>
      <point x="347" y="308" type="line"/>
    </contour>
  </outline>
</glyph>
<glyph name="uni0430" format="2">
  <advance width="466"/>
  <unicode hex="0430"/>
  <outline>
    <contour>
      <point x="330" y="6" type="line"/>
      <point x="397" y="6" type="line"/>
      <point x="397" y="346" type="line" smooth="yes"/>
      <point x="397" y="392"/>
      <point x="384" y="431"/>
      <point x="358" y="463" type="curve" smooth="yes"/>
      <point x="332" y="494"/>
      <point x="291" y="510"/>
      <point x="235" y="510" type="curve" smooth="yes"/>
      <point x="207" y="510"/>
      <point x="182" y="506"/>
      <point x="162" y="498" type="curve" smooth="yes"/>
      <point x="141" y="489"/>
      <point x="123" y="478"/>
      <point x="109" y="465" type="curve" smooth="yes"/>
      <point x="95" y="451"/>
      <point x="84" y="437"/>
      <point x="78" y="421" type="curve" smooth="yes"/>
      <point x="71" y="404"/>
      <point x="68" y="387"/>
      <point x="68" y="371" type="curve"/>
      <point x="146" y="371" type="line"/>
      <point x="146" y="395"/>
      <point x="154" y="414"/>
      <point x="170" y="429" type="curve" smooth="yes"/>
      <point x="185" y="443"/>
      <point x="207" y="451"/>
      <point x="235" y="451" type="curve" smooth="yes"/>
      <point x="257" y="451"/>
      <point x="274" y="447"/>
      <point x="287" y="439" type="curve" smooth="yes"/>
      <point x="299" y="430"/>
      <point x="309" y="420"/>
      <point x="315" y="409" type="curve" smooth="yes"/>
      <point x="321" y="397"/>
      <point x="326" y="385"/>
      <point x="328" y="371" type="curve" smooth="yes"/>
      <point x="329" y="356"/>
      <point x="330" y="346"/>
      <point x="330" y="342" type="curve" smooth="yes"/>
      <point x="330" y="291" type="line"/>
      <point x="323" y="291"/>
      <point x="314" y="291"/>
      <point x="302" y="292" type="curve" smooth="yes"/>
      <point x="290" y="292"/>
      <point x="276" y="291"/>
      <point x="261" y="291" type="curve" smooth="yes"/>
      <point x="245" y="290"/>
      <point x="228" y="288"/>
      <point x="211" y="286" type="curve" smooth="yes"/>
      <point x="193" y="283"/>
      <point x="175" y="279"/>
      <point x="158" y="273" type="curve" smooth="yes"/>
      <point x="130" y="263"/>
      <point x="106" y="245"/>
      <point x="87" y="219" type="curve" smooth="yes"/>
      <point x="67" y="191"/>
      <point x="57" y="160"/>
      <point x="57" y="124" type="curve" smooth="yes"/>
      <point x="57" y="104"/>
      <point x="60" y="86"/>
      <point x="68" y="70" type="curve" smooth="yes"/>
      <point x="74" y="54"/>
      <point x="83" y="40"/>
      <point x="94" y="29" type="curve" smooth="yes"/>
      <point x="106" y="17"/>
      <point x="119" y="9"/>
      <point x="134" y="4" type="curve" smooth="yes"/>
      <point x="148" y="-2"/>
      <point x="162" y="-5"/>
      <point x="178" y="-5" type="curve" smooth="yes"/>
      <point x="200" y="-5"/>
      <point x="219" y="-2"/>
      <point x="237" y="4" type="curve" smooth="yes"/>
      <point x="254" y="9"/>
      <point x="269" y="16"/>
      <point x="283" y="24" type="curve" smooth="yes"/>
      <point x="304" y="37"/>
      <point x="319" y="52"/>
      <point x="329" y="68" type="curve"/>
      <point x="330" y="68" type="line"/>
    </contour>
    <contour>
      <point x="330" y="190" type="line" smooth="yes"/>
      <point x="330" y="178"/>
      <point x="327" y="160"/>
      <point x="322" y="136" type="curve" smooth="yes"/>
      <point x="314" y="114"/>
      <point x="297" y="95"/>
      <point x="271" y="77" type="curve" smooth="yes"/>
      <point x="248" y="61"/>
      <point x="228" y="54"/>
      <point x="210" y="54" type="curve" smooth="yes"/>
      <point x="189" y="54"/>
      <point x="170" y="59"/>
      <point x="154" y="70" type="curve" smooth="yes"/>
      <point x="137" y="80"/>
      <point x="129" y="102"/>
      <point x="129" y="134" type="curve" smooth="yes"/>
      <point x="129" y="148"/>
      <point x="131" y="160"/>
      <point x="137" y="172" type="curve" smooth="yes"/>
      <point x="142" y="183"/>
      <point x="149" y="193"/>
      <point x="158" y="201" type="curve" smooth="yes"/>
      <point x="166" y="209"/>
      <point x="176" y="215"/>
      <point x="187" y="221" type="curve" smooth="yes"/>
      <point x="197" y="225"/>
      <point x="207" y="229"/>
      <point x="217" y="232" type="curve" smooth="yes"/>
      <point x="237" y="237"/>
      <point x="258" y="240"/>
      <point x="278" y="241" type="curve" smooth="yes"/>
      <point x="297" y="241"/>
      <point x="314" y="240"/>
      <point x="330" y="240" type="curve"/>
    </contour>
  </outline>
</glyph>
<glyph name="uni0431" format="2">
  <advance width="502"/>
  <unicode hex="0431"/>
  <outline>
    <contour>
      <point x="282" y="547" type="curve" smooth="yes"/>
      <point x="331" y="563"/>
      <point x="367" y="584"/>
      <point x="389" y="609" type="curve" smooth="yes"/>
      <point x="411" y="633"/>
      <point x="422" y="665"/>
      <point x="422" y="707" type="curve"/>
      <point x="348" y="707" type="line"/>
      <point x="345" y="683"/>
      <point x="337" y="663"/>
      <point x="324" y="648" type="curve" smooth="yes"/>
      <point x="310" y="632"/>
      <point x="284" y="618"/>
      <point x="247" y="606" type="curve" smooth="yes"/>
      <point x="183" y="584"/>
      <point x="133" y="544"/>
      <point x="97" y="486" type="curve" smooth="yes"/>
      <point x="61" y="427"/>
      <point x="43" y="348"/>
      <point x="43" y="248" type="curve" smooth="yes"/>
      <point x="43" y="204"/>
      <point x="47" y="167"/>
      <point x="57" y="138" type="curve" smooth="yes"/>
      <point x="66" y="108"/>
      <point x="80" y="83"/>
      <point x="98" y="62" type="curve" smooth="yes"/>
      <point x="115" y="40"/>
      <point x="137" y="24"/>
      <point x="163" y="13" type="curve" smooth="yes"/>
      <point x="188" y="1"/>
      <point x="217" y="-5"/>
      <point x="249" y="-5" type="curve" smooth="yes"/>
      <point x="280" y="-5"/>
      <point x="308" y="1"/>
      <point x="334" y="13" type="curve" smooth="yes"/>
      <point x="359" y="24"/>
      <point x="380" y="41"/>
      <point x="398" y="63" type="curve" smooth="yes"/>
      <point x="416" y="84"/>
      <point x="430" y="110"/>
      <point x="440" y="140" type="curve" smooth="yes"/>
      <point x="449" y="170"/>
      <point x="454" y="203"/>
      <point x="454" y="239" type="curve" smooth="yes"/>
      <point x="454" y="275"/>
      <point x="449" y="308"/>
      <point x="440" y="340" type="curve" smooth="yes"/>
      <point x="430" y="370"/>
      <point x="416" y="397"/>
      <point x="398" y="421" type="curve" smooth="yes"/>
      <point x="380" y="444"/>
      <point x="358" y="462"/>
      <point x="333" y="476" type="curve" smooth="yes"/>
      <point x="307" y="489"/>
      <point x="278" y="496"/>
      <point x="247" y="496" type="curve" smooth="yes"/>
      <point x="233" y="496"/>
      <point x="218" y="493"/>
      <point x="203" y="489" type="curve" smooth="yes"/>
      <point x="187" y="484"/>
      <point x="173" y="477"/>
      <point x="161" y="469" type="curve"/>
      <point x="180" y="492"/>
      <point x="199" y="509"/>
      <point x="219" y="520" type="curve" smooth="yes"/>
      <point x="238" y="530"/>
      <point x="259" y="539"/>
    </contour>
    <contour>
      <point x="115" y="238" type="curve" smooth="yes"/>
      <point x="115" y="261"/>
      <point x="117" y="285"/>
      <point x="122" y="309" type="curve" smooth="yes"/>
      <point x="126" y="332"/>
      <point x="134" y="353"/>
      <point x="145" y="372" type="curve" smooth="yes"/>
      <point x="155" y="391"/>
      <point x="168" y="407"/>
      <point x="185" y="419" type="curve" smooth="yes"/>
      <point x="201" y="431"/>
      <point x="222" y="437"/>
      <point x="246" y="437" type="curve" smooth="yes"/>
      <point x="269" y="437"/>
      <point x="289" y="431"/>
      <point x="307" y="419" type="curve" smooth="yes"/>
      <point x="323" y="407"/>
      <point x="337" y="391"/>
      <point x="348" y="372" type="curve" smooth="yes"/>
      <point x="358" y="353"/>
      <point x="366" y="332"/>
      <point x="372" y="309" type="curve" smooth="yes"/>
      <point x="377" y="285"/>
      <point x="380" y="261"/>
      <point x="380" y="239" type="curve" smooth="yes"/>
      <point x="380" y="222"/>
      <point x="377" y="201"/>
      <point x="373" y="176" type="curve" smooth="yes"/>
      <point x="367" y="150"/>
      <point x="359" y="129"/>
      <point x="349" y="112" type="curve" smooth="yes"/>
      <point x="338" y="94"/>
      <point x="325" y="80"/>
      <point x="309" y="70" type="curve" smooth="yes"/>
      <point x="292" y="59"/>
      <point x="272" y="54"/>
      <point x="249" y="54" type="curve" smooth="yes"/>
      <point x="226" y="54"/>
      <point x="206" y="59"/>
      <point x="190" y="70" type="curve" smooth="yes"/>
      <point x="172" y="80"/>
      <point x="158" y="93"/>
      <point x="147" y="110" type="curve" smooth="yes"/>
      <point x="136" y="127"/>
      <point x="128" y="147"/>
      <point x="123" y="169" type="curve" smooth="yes"/>
      <point x="117" y="191"/>
      <point x="115" y="214"/>
    </contour>
  </outline>
</glyph>
<glyph name="uni0437" format="2">
  <advance width="421"/>
  <unicode hex="0437"/>
  <outline>
    <contour>
      <point x="114" y="391" type="line"/>
      <point x="114" y="411"/>
      <point x="123" y="426"/>
      <point x="142" y="436" type="curve" smooth="yes"/>
      <point x="160" y="446"/>
      <point x="183" y="451"/>
      <point x="211" y="451" type="curve" smooth="yes"/>
      <point x="237" y="451"/>
      <point x="260" y="444"/>
      <point x="278" y="431" type="curve" smooth="yes"/>
      <point x="295" y="417"/>
      <point x="304" y="399"/>
      <point x="304" y="379" type="curve" smooth="yes"/>
      <point x="304" y="351"/>
      <point x="295" y="330"/>
      <point x="279" y="317" type="curve" smooth="yes"/>
      <point x="261" y="303"/>
      <point x="238" y="296"/>
      <point x="208" y="296" type="curve" smooth="yes"/>
      <point x="164" y="296" type="line"/>
      <point x="164" y="238" type="line"/>
      <point x="208" y="238" type="line" smooth="yes"/>
      <point x="233" y="238"/>
      <point x="256" y="230"/>
      <point x="278" y="215" type="curve" smooth="yes"/>
      <point x="298" y="199"/>
      <point x="309" y="175"/>
      <point x="309" y="145" type="curve" smooth="yes"/>
      <point x="309" y="117"/>
      <point x="299" y="95"/>
      <point x="280" y="79" type="curve" smooth="yes"/>
      <point x="260" y="62"/>
      <point x="236" y="54"/>
      <point x="206" y="54" type="curve" smooth="yes"/>
      <point x="176" y="54"/>
      <point x="153" y="60"/>
      <point x="137" y="73" type="curve" smooth="yes"/>
      <point x="120" y="85"/>
      <point x="112" y="100"/>
      <point x="112" y="116" type="curve"/>
      <point x="40" y="116" type="line"/>
      <point x="40" y="78"/>
      <point x="56" y="48"/>
      <point x="88" y="27" type="curve" smooth="yes"/>
      <point x="120" y="5"/>
      <point x="160" y="-5"/>
      <point x="208" y="-5" type="curve" smooth="yes"/>
      <point x="232" y="-5"/>
      <point x="255" y="-1"/>
      <point x="276" y="7" type="curve" smooth="yes"/>
      <point x="296" y="14"/>
      <point x="314" y="24"/>
      <point x="330" y="37" type="curve" smooth="yes"/>
      <point x="344" y="50"/>
      <point x="356" y="66"/>
      <point x="365" y="85" type="curve" smooth="yes"/>
      <point x="373" y="103"/>
      <point x="377" y="122"/>
      <point x="377" y="141" type="curve" smooth="yes"/>
      <point x="377" y="164"/>
      <point x="373" y="184"/>
      <point x="366" y="200" type="curve" smooth="yes"/>
      <point x="358" y="216"/>
      <point x="350" y="228"/>
      <point x="340" y="238" type="curve" smooth="yes"/>
      <point x="330" y="247"/>
      <point x="320" y="254"/>
      <point x="310" y="258" type="curve" smooth="yes"/>
      <point x="298" y="262"/>
      <point x="289" y="265"/>
      <point x="282" y="267" type="curve"/>
      <point x="282" y="268" type="line"/>
      <point x="289" y="268"/>
      <point x="298" y="271"/>
      <point x="308" y="277" type="curve" smooth="yes"/>
      <point x="318" y="281"/>
      <point x="327" y="288"/>
      <point x="337" y="298" type="curve" smooth="yes"/>
      <point x="345" y="306"/>
      <point x="353" y="318"/>
      <point x="360" y="332" type="curve" smooth="yes"/>
      <point x="366" y="346"/>
      <point x="370" y="362"/>
      <point x="370" y="380" type="curve" smooth="yes"/>
      <point x="370" y="400"/>
      <point x="365" y="418"/>
      <point x="355" y="435" type="curve" smooth="yes"/>
      <point x="345" y="451"/>
      <point x="332" y="465"/>
      <point x="318" y="476" type="curve" smooth="yes"/>
      <point x="302" y="487"/>
      <point x="285" y="496"/>
      <point x="266" y="502" type="curve" smooth="yes"/>
      <point x="246" y="507"/>
      <point x="227" y="510"/>
      <point x="208" y="510" type="curve" smooth="yes"/>
      <point x="156" y="510"/>
      <point x="117" y="497"/>
      <point x="89" y="473" type="curve" smooth="yes"/>
      <point x="61" y="448"/>
      <point x="47" y="421"/>
      <point x="47" y="391" type="curve"/>
    </contour>
  </outline>
</glyph>
<glyph name="uni043B" format="2">
  <advance width="487"/>
  <unicode hex="043B"/>
  <outline>
    <contour>
      <point x="208" y="439" type="line"/>
      <point x="374" y="439" type="line"/>
      <point x="374" y="6" type="line"/>
      <point x="435" y="6" type="line"/>
      <point x="435" y="498" type="line"/>
      <point x="147" y="498" type="line"/>
      <point x="147" y="128" type="line" smooth="yes"/>
      <point x="147" y="106"/>
      <point x="142" y="88"/>
      <point x="132" y="75" type="curve" smooth="yes"/>
      <point x="122" y="61"/>
      <point x="106" y="54"/>
      <point x="84" y="54" type="curve" smooth="yes"/>
      <point x="73" y="54"/>
      <point x="63" y="55"/>
      <point x="54" y="58" type="curve" smooth="yes"/>
      <point x="44" y="60"/>
      <point x="36" y="62"/>
      <point x="30" y="66" type="curve"/>
      <point x="30" y="3" type="line"/>
      <point x="36" y="1"/>
      <point x="44" y="-1"/>
      <point x="52" y="-3" type="curve" smooth="yes"/>
      <point x="59" y="-4"/>
      <point x="69" y="-5"/>
      <point x="81" y="-5" type="curve" smooth="yes"/>
      <point x="109" y="-5"/>
      <point x="131" y="-1"/>
      <point x="148" y="6" type="curve" smooth="yes"/>
      <point x="164" y="12"/>
      <point x="177" y="21"/>
      <point x="186" y="33" type="curve" smooth="yes"/>
      <point x="195" y="43"/>
      <point x="201" y="56"/>
      <point x="204" y="70" type="curve" smooth="yes"/>
      <point x="206" y="83"/>
      <point x="208" y="96"/>
      <point x="208" y="109" type="curve" smooth="yes"/>
    </contour>
  </outline>
</glyph>
<glyph name="uni043D" format="2">
  <advance width="462"/>
  <unicode hex="043D"/>
  <outline>
    <contour>
      <point x="66" y="6" type="line"/>
      <point x="127" y="6" type="line"/>
      <point x="127" y="232" type="line"/>
      <point x="334" y="232" type="line"/>
      <point x="334" y="6" type="line"/>
      <point x="396" y="6" type="line"/>
      <point x="396" y="498" type="line"/>
      <point x="334" y="498" type="line"/>
      <point x="334" y="291" type="line"/>
      <point x="127" y="291" type="line"/>
      <point x="127" y="498" type="line"/>
      <point x="66" y="498" type="line"/>
    </contour>
  </outline>
</glyph>
<glyph name="uni0449" format="2">
  <advance width="582"/>
  <unicode hex="0449"/>
  <outline>
    <contour>
      <point x="485" y="498" type="line"/>
      <point x="423" y="498" type="line"/>
      <point x="423" y="65" type="line"/>
      <point x="300" y="65" type="line"/>
      <point x="300" y="498" type="line"/>
      <point x="238" y="498" type="line"/>
      <point x="238" y="65" type="line"/>
      <point x="107" y="65" type="line"/>
      <point x="107" y="498" type="line"/>
      <point x="46" y="498" type="line"/>
      <point x="46" y="6" type="line"/>
      <point x="485" y="6" type="line"/>
      <point x="485" y="-60" type="line"/>
      <point x="546" y="-60" type="line"/>
      <point x="546" y="65" type="line"/>
      <point x="485" y="65" type="line"/>
    </contour>
  </outline>
</glyph>
<glyph name="uni044C" format="2">
  <advance width="461"/>
  <unicode hex="044C"/>
  <outline>
    <contour>
      <point x="132" y="294" type="line"/>
      <point x="132" y="498" type="line"/>
      <point x="71" y="498" type="line"/>
      <point x="71" y="6" type="line"/>
      <point x="245" y="6" type="line" smooth="yes"/>
      <point x="263" y="6"/>
      <point x="282" y="8"/>
      <point x="304" y="13" type="curve" smooth="yes"/>
      <point x="332" y="19"/>
      <point x="358" y="34"/>
      <point x="381" y="58" type="curve" smooth="yes"/>
      <point x="403" y="81"/>
      <point x="414" y="111"/>
      <point x="414" y="148" type="curve" smooth="yes"/>
      <point x="414" y="196"/>
      <point x="397" y="232"/>
      <point x="363" y="257" type="curve" smooth="yes"/>
      <point x="329" y="281"/>
      <point x="283" y="294"/>
      <point x="227" y="294" type="curve" smooth="yes"/>
    </contour>
    <contour>
      <point x="132" y="236" type="line"/>
      <point x="247" y="236" type="line" smooth="yes"/>
      <point x="259" y="236"/>
      <point x="271" y="234"/>
      <point x="284" y="232" type="curve" smooth="yes"/>
      <point x="296" y="228"/>
      <point x="307" y="224"/>
      <point x="317" y="218" type="curve" smooth="yes"/>
      <point x="326" y="211"/>
      <point x="334" y="202"/>
      <point x="341" y="192" type="curve" smooth="yes"/>
      <point x="347" y="180"/>
      <point x="351" y="166"/>
      <point x="351" y="150" type="curve" smooth="yes"/>
      <point x="351" y="120"/>
      <point x="340" y="98"/>
      <point x="320" y="85" type="curve" smooth="yes"/>
      <point x="298" y="71"/>
      <point x="272" y="65"/>
      <point x="241" y="65" type="curve" smooth="yes"/>
      <point x="132" y="65" type="line"/>
    </contour>
  </outline>
</glyph>
<glyph name="uni0451" format="2">
  <advance width="480"/>
  <unicode hex="0451"/>
  <outline>
    <contour>
      <point x="107" y="656" type="line"/>
      <point x="107" y="557" type="line"/>
      <point x="196" y="557" type="line"/>
      <point x="196" y="656" type="line"/>
    </contour>
    <contour>
      <point x="295" y="656" type="line"/>
      <point x="295" y="557" type="line"/>
      <point x="385" y="557" type="line"/>
      <point x="385" y="656" type="line"/>
    </contour>
    <contour>
      <point x="416" y="70" type="line"/>
      <point x="396" y="63"/>
      <point x="377" y="59"/>
      <point x="359" y="57" type="curve" smooth="yes"/>
      <point x="341" y="55"/>
      <point x="328" y="54"/>
      <point x="321" y="54" type="curve" smooth="yes"/>
      <point x="303" y="54"/>
      <point x="282" y="56"/>
      <point x="260" y="60" type="curve" smooth="yes"/>
      <point x="236" y="63"/>
      <point x="219" y="68"/>
      <point x="209" y="75" type="curve" smooth="yes"/>
      <point x="175" y="95"/>
      <point x="151" y="120"/>
      <point x="139" y="150" type="curve" smooth="yes"/>
      <point x="125" y="180"/>
      <point x="117" y="211"/>
      <point x="115" y="245" type="curve"/>
      <point x="430" y="245" type="line"/>
      <point x="430" y="275" type="line" smooth="yes"/>
      <point x="430" y="302"/>
      <point x="427" y="329"/>
      <point x="423" y="356" type="curve" smooth="yes"/>
      <point x="418" y="382"/>
      <point x="410" y="407"/>
      <point x="398" y="429" type="curve" smooth="yes"/>
      <point x="382" y="454"/>
      <point x="363" y="474"/>
      <point x="339" y="489" type="curve" smooth="yes"/>
      <point x="314" y="503"/>
      <point x="287" y="510"/>
      <point x="257" y="510" type="curve" smooth="yes"/>
      <point x="189" y="510"/>
      <point x="137" y="487"/>
      <point x="100" y="441" type="curve" smooth="yes"/>
      <point x="62" y="394"/>
      <point x="44" y="335"/>
      <point x="44" y="263" type="curve" smooth="yes"/>
      <point x="44" y="219"/>
      <point x="50" y="180"/>
      <point x="64" y="146" type="curve" smooth="yes"/>
      <point x="76" y="112"/>
      <point x="92" y="84"/>
      <point x="112" y="62" type="curve" smooth="yes"/>
      <point x="132" y="39"/>
      <point x="159" y="22"/>
      <point x="193" y="12" type="curve" smooth="yes"/>
      <point x="227" y="0"/>
      <point x="263" y="-5"/>
      <point x="302" y="-5" type="curve" smooth="yes"/>
      <point x="322" y="-5"/>
      <point x="342" y="-3"/>
      <point x="362" y="0" type="curve" smooth="yes"/>
      <point x="381" y="3"/>
      <point x="399" y="8"/>
      <point x="416" y="14" type="curve"/>
    </contour>
    <contour>
      <point x="340" y="399" type="curve" smooth="yes"/>
      <point x="348" y="385"/>
      <point x="353" y="369"/>
      <point x="355" y="351" type="curve" smooth="yes"/>
      <point x="356" y="333"/>
      <point x="357" y="317"/>
      <point x="357" y="303" type="curve"/>
      <point x="115" y="303" type="line"/>
      <point x="119" y="349"/>
      <point x="134" y="385"/>
      <point x="160" y="412" type="curve" smooth="yes"/>
      <point x="185" y="438"/>
      <point x="216" y="451"/>
      <point x="254" y="451" type="curve" smooth="yes"/>
      <point x="272" y="451"/>
      <point x="289" y="446"/>
      <point x="303" y="438" type="curve" smooth="yes"/>
      <point x="317" y="428"/>
      <point x="329" y="415"/>
    </contour>
  </outline>
</glyph>
